<svg xmlns="http://www.w3.org/2000/svg" viewBox="0 0 214.78 133.38"><title>ManuFattu logo</title><g id="Livello_2" data-name="Livello 2"><g id="Livello_2-2" data-name="Livello 2"><path class="cls-1" d="M152.52,24.53a4.37,4.37,0,0,1,4.38,4.38V66.69h-2.05V28.91a2.32,2.32,0,0,0-2.33-2.33,2.32,2.32,0,0,0-2.33,2.33V66.69h-2.05V28.91a2.32,2.32,0,0,0-2.33-2.33,2.31,2.31,0,0,0-1.68.68,2.17,2.17,0,0,0-.71,1.65V66.69h-2V28.91a4.39,4.39,0,0,1,4.39-4.38,4.32,4.32,0,0,1,3.35,1.53,4.33,4.33,0,0,1,3.36-1.53"/><path class="cls-1" d="M170.33,59.7H175V28.91a2.32,2.32,0,0,0-2.33-2.33,2.34,2.34,0,0,0-2.34,2.33Zm2.34-35.17a4.42,4.42,0,0,1,4.38,4.38V66.69H175V61.74h-4.67v4.95h-2.05V28.91a4.37,4.37,0,0,1,4.39-4.38"/><path class="cls-1" d="M188.43,66.69V28.91a4.38,4.38,0,1,1,8.76,0V66.69h-2.05V28.91a2.33,2.33,0,0,0-.68-1.68,2.23,2.23,0,0,0-1.65-.71,2.42,2.42,0,0,0-2.39,2.39V66.69Z"/><path class="cls-1" d="M213.54,107.77a4.66,4.66,0,0,1-6,0,3.34,3.34,0,0,1-1.24-2.62V24.53h2v80.62a1.8,1.8,0,0,0,.66,1.4,2.52,2.52,0,0,0,3.19,0,1.8,1.8,0,0,0,.66-1.4V24.53h2v80.62a3.37,3.37,0,0,1-1.24,2.62"/><path class="cls-1" d="M141.43,107.05h9v1.81h-9Zm0-35.08h9v1.81h-7.18V92h4.67V93.8h-4.67v4.82h-1.8Z"/><path class="cls-1" d="M159.21,102.68h4.12V75.53a1.94,1.94,0,0,0-.61-1.45,2,2,0,0,0-1.45-.61,2,2,0,0,0-1.46.61,2,2,0,0,0-.6,1.45Zm2.06-31A3.72,3.72,0,0,1,164,72.8a3.66,3.66,0,0,1,1.15,2.73v33.33h-1.8v-4.37h-4.12v4.37H157.4V75.53a3.86,3.86,0,0,1,3.87-3.86"/><path class="cls-1" d="M172.66,107.05H183.9v1.81H172.66ZM183.9,72v1.81h-4.76V98.62h-1.76V73.78h-4.72V72Z"/><path class="cls-1" d="M188.92,107.05h11.24v1.81H188.92ZM200.16,72v1.81H195.4V98.62h-1.76V73.78h-4.72V72Z"/><path class="cls-1" d="M66.69,35.66A10.41,10.41,0,0,1,56.27,25.24a6.61,6.61,0,0,0-2-4.71,6.68,6.68,0,0,0-9.42,0l-2.66-2.66A10.42,10.42,0,0,1,60,25.24,6.66,6.66,0,0,0,71.4,30l2.66,2.66a10.4,10.4,0,0,1-7.37,3"/><path class="cls-1" d="M18.65,49.46H14.88a10.43,10.43,0,0,1,17.8-7.38A6.65,6.65,0,0,0,44,37.38h3.77A10.44,10.44,0,0,1,37.39,47.8a10.32,10.32,0,0,1-7.37-3,6.66,6.66,0,0,0-11.37,4.71"/><path class="cls-1" d="M17.88,91.13a10.42,10.42,0,0,1,7.37-17.79,6.57,6.57,0,0,0,4.7-2A6.66,6.66,0,0,0,30,62l2.67-2.66a10.43,10.43,0,0,1-7.37,17.8,6.66,6.66,0,0,0-4.71,11.36Z"/><path class="cls-1" d="M49.46,118.49A10.44,10.44,0,0,1,39,108.07a10.32,10.32,0,0,1,3.05-7.37,6.66,6.66,0,0,0-4.71-11.37V85.56a10.43,10.43,0,0,1,7.38,17.8,6.65,6.65,0,0,0,4.7,11.36Z"/><path class="cls-1" d="M83.77,118.55a10.41,10.41,0,0,1-10.42-10.42A6.66,6.66,0,0,0,62,103.42l-2.66-2.66a10.42,10.42,0,0,1,17.79,7.37,6.66,6.66,0,0,0,11.37,4.7l2.66,2.67a10.34,10.34,0,0,1-7.37,3"/><path class="cls-1" d="M89.34,96H85.57a10.43,10.43,0,0,1,17.8-7.37,6.59,6.59,0,0,0,4.7,1.95,6.67,6.67,0,0,0,6.66-6.66h3.77a10.42,10.42,0,0,1-17.8,7.37,6.59,6.59,0,0,0-4.7-2A6.66,6.66,0,0,0,89.34,96"/><path class="cls-1" d="M100.76,74.05a10.42,10.42,0,0,1,7.38-17.79,6.59,6.59,0,0,0,4.7-1.95,6.66,6.66,0,0,0,0-9.42l2.67-2.66A10.43,10.43,0,0,1,108.14,60a6.65,6.65,0,0,0-4.71,11.36Z"/><path class="cls-1" d="M96,47.8A10.42,10.42,0,0,1,88.63,30a6.66,6.66,0,0,0-4.71-11.37V14.88a10.42,10.42,0,0,1,7.37,17.79A6.66,6.66,0,0,0,96,44Z"/><path class="cls-1" d="M5.27,66.69H0A66.77,66.77,0,0,1,66.69,0V5.27A61.49,61.49,0,0,0,5.27,66.69"/><path class="cls-1" d="M66.69,133.38v-5.27a61.49,61.49,0,0,0,61.42-61.42h5.28a66.77,66.77,0,0,1-66.7,66.69"/><path class="cls-1" d="M80.76,50.14,66.69,64.21,53.16,50.68l-.53-.54a21.56,21.56,0,0,1,3.11-2.21l.56.56L66.69,58.88l10.4-10.39.56-.56a23.36,23.36,0,0,1,3.11,2.21"/><path class="cls-1" d="M74.27,46.32l-.59.59-7,7-7.58-7.58a21.46,21.46,0,0,1,4.22-1.1l.67.67,2.69,2.69,3.36-3.36a22,22,0,0,1,4.22,1.1"/><path class="cls-1" d="M64.21,66.53,50.07,80.67a22,22,0,0,1-2.2-3.13l11-11L48,55.63a22.06,22.06,0,0,1,2.23-3.09Z"/><path class="cls-1" d="M53.91,66.19,46.2,73.91a20.35,20.35,0,0,1-1-4.29h0l.67-.67,2.74-2.75L45.3,62.91a20.21,20.21,0,0,1,1.17-4.16Z"/><path class="cls-1" d="M80.76,83.24a22.55,22.55,0,0,1-3.11,2.22l-.56-.56L66.69,74.5l-10.95,11a20.87,20.87,0,0,1-3.11-2.22l.53-.53L66.69,69.18,80.22,82.71Z"/><path class="cls-1" d="M74.27,87.06a22,22,0,0,1-4.22,1.11l-3.36-3.36L64,87.5l-.67.67a21.48,21.48,0,0,1-4.22-1.11l.6-.59,7-7Z"/><path class="cls-1" d="M84.84,77.2l.55.55a22.7,22.7,0,0,1-2.22,3.1l-14-14,13.6-13.61.54-.53a20.66,20.66,0,0,1,2.19,3.13L85,56.4,74.5,66.86Z"/><path class="cls-1" d="M88.22,63.77,84.8,67.19l3.28,3.28a20.65,20.65,0,0,1-1.16,4.16l-7.44-7.44,7.11-7.13.6-.58a21.05,21.05,0,0,1,1,4.28Z"/></g></g></svg>