<svg xmlns="http://www.w3.org/2000/svg" viewBox="0 0 359.23 359.22"><defs><style>.cls-1{fill:#383836;}</style></defs><title>abbigliamento e accessori</title><g id="Livello_2" data-name="Livello 2"><g id="Livello_2-2" data-name="Livello 2"><path class="cls-1" d="M306.59,61.12l-10.34-6.63a27.47,27.47,0,0,0-45.62-30.58l-10.07-7a39.75,39.75,0,0,1,66,44.26Z"/><path class="cls-1" d="M52.57,61a39.77,39.77,0,0,1,66.12-44.16l-10.06,7.05a27.48,27.48,0,0,0-45.7,30.5Z"/><path class="cls-1" d="M16.83,118.65A39.78,39.78,0,0,1,61,52.53L54.46,62.9a27.5,27.5,0,0,0-30.57,45.69Z"/><path class="cls-1" d="M39.88,312.79a39.72,39.72,0,0,1-23-72.26l7,10.07a27.49,27.49,0,0,0,30.54,45.69l6.6,10.36A39.25,39.25,0,0,1,39.88,312.79Z"/><path class="cls-1" d="M86,359.22a39.41,39.41,0,0,1-22-6.64,40,40,0,0,1-11.47-54.41l10.36,6.6a27.49,27.49,0,0,0,45.7,30.54l10.06,7.05A39.82,39.82,0,0,1,86,359.22Z"/><path class="cls-1" d="M273.23,359.21a39.83,39.83,0,0,1-32.67-16.85l10.07-7.05a27.47,27.47,0,0,0,45.64-30.56l10.35-6.62a40,40,0,0,1-11.44,54.45A39.4,39.4,0,0,1,273.23,359.21Z"/><path class="cls-1" d="M319.4,312.81a39.37,39.37,0,0,1-21.26-6.19l6.61-10.36a27.49,27.49,0,0,0,30.59-45.67l7.05-10.06a39.75,39.75,0,0,1-23,72.28Z"/><path class="cls-1" d="M342.43,118.65l-7.06-10.05A27.48,27.48,0,0,0,304.73,63L298.1,52.63a39.77,39.77,0,0,1,44.33,66Z"/></g></g></svg>