<svg xmlns="http://www.w3.org/2000/svg" viewBox="0 0 487.77 487.77"><defs><style>.cls-1{fill:none;}.cls-2{fill:#383836;}</style></defs><title>A_1_abbigliamento</title><g id="Livello_2" data-name="Livello 2"><g id="Livello_2-2" data-name="Livello 2"><circle class="cls-1" cx="243.88" cy="243.88" r="243.88"/><path class="cls-2" d="M452.72,277.57a34,34,0,1,1,34-34A34,34,0,0,1,452.72,277.57Zm0-55.73a21.72,21.72,0,1,0,21.72,21.72A21.75,21.75,0,0,0,452.72,221.84Z"/><path class="cls-2" d="M243.75,423.86l0-12.28a169.22,169.22,0,0,0,26.79-2.14c4-.63,8-1.42,12-2.34l.71-.17a168.17,168.17,0,0,0,24.86-8.1A170,170,0,0,0,332,386.57c3.51-2.17,6.9-4.44,10.07-6.76a168.45,168.45,0,0,0,37.91-37.9c2.35-3.21,4.62-6.6,6.78-10.1a167.53,167.53,0,0,0,20.53-49.53c.93-3.94,1.72-7.95,2.35-11.91a169.67,169.67,0,0,0,0-53.6c-.63-4-1.42-8-2.35-11.92A166.83,166.83,0,0,0,399,179.28a164,164,0,0,0-12.24-23.9c-2.15-3.48-4.42-6.88-6.79-10.13a165.37,165.37,0,0,0-17.43-20.47,167.2,167.2,0,0,0-20.45-17.42c-3.21-2.35-6.59-4.62-10.11-6.79a167.75,167.75,0,0,0-49-20.41l-.52-.12c-3.92-.92-7.94-1.71-11.94-2.34a169.37,169.37,0,0,0-26.78-2.14l0-12.29h0a182,182,0,0,1,28.72,2.29c4,.65,8.12,1.44,12.11,2.36h0l.72.16A180.12,180.12,0,0,1,312.75,77a182,182,0,0,1,25.67,13.16c3.78,2.33,7.44,4.79,10.87,7.29a180.73,180.73,0,0,1,40.62,40.64c2.53,3.48,5,7.14,7.27,10.86a175.27,175.27,0,0,1,13.15,25.67A179.35,179.35,0,0,1,419.21,202c1,4.25,1.85,8.56,2.52,12.81a181.43,181.43,0,0,1,0,57.47c-.67,4.24-1.52,8.55-2.52,12.79a180.1,180.1,0,0,1-22,53.16c-2.33,3.78-4.79,7.43-7.3,10.87a180.19,180.19,0,0,1-40.64,40.62c-3.39,2.49-7.05,4.94-10.83,7.28a180.56,180.56,0,0,1-53.09,22l-.74.16c-4,.92-8.06,1.71-12.12,2.36A182.91,182.91,0,0,1,243.75,423.86Z"/><path class="cls-2" d="M34.77,277.57a34,34,0,1,1,34-34A34,34,0,0,1,34.77,277.57Zm0-55.73a21.72,21.72,0,1,0,21.72,21.72A21.75,21.75,0,0,0,34.77,221.84Z"/><path class="cls-2" d="M243.75,423.86A181.82,181.82,0,0,1,215,421.57c-4-.64-8.13-1.43-12.12-2.35h0l-.72-.16a179.72,179.72,0,0,1-53.1-22c-3.77-2.32-7.43-4.78-10.87-7.29a180.73,180.73,0,0,1-40.62-40.64c-2.49-3.4-4.94-7-7.28-10.83a180.78,180.78,0,0,1-22-53.15c-1-4.25-1.84-8.56-2.52-12.81a181.43,181.43,0,0,1,0-57.47c.68-4.24,1.52-8.55,2.52-12.79a179.24,179.24,0,0,1,8.89-27.47,175,175,0,0,1,13.16-25.68c2.28-3.7,4.73-7.36,7.27-10.86a180.91,180.91,0,0,1,40.65-40.65c3.39-2.48,7.05-4.93,10.83-7.27A181.76,181.76,0,0,1,174.72,77a178.83,178.83,0,0,1,27.44-8.89l.73-.16c4-.92,8.07-1.71,12.13-2.36a181.54,181.54,0,0,1,28.71-2.29l0,12.29h0A170.46,170.46,0,0,0,217,77.69c-4,.64-8,1.43-11.95,2.35l-.7.17a166.25,166.25,0,0,0-24.86,8.1,168.91,168.91,0,0,0-23.92,12.26c-3.52,2.16-6.9,4.44-10.07,6.76a168.45,168.45,0,0,0-37.91,37.9c-2.38,3.27-4.66,6.67-6.79,10.13A162.68,162.68,0,0,0,88.5,179.27a167.11,167.11,0,0,0-8.28,25.59c-.93,3.94-1.72,7.95-2.34,11.9a168.88,168.88,0,0,0,0,53.6c.63,4,1.41,8,2.34,11.93a167.91,167.91,0,0,0,20.53,49.52c2.16,3.5,4.44,6.89,6.76,10.06a168.45,168.45,0,0,0,37.9,37.91c3.21,2.36,6.6,4.63,10.1,6.79a170.63,170.63,0,0,0,23.93,12.26A168,168,0,0,0,204.49,407l.51.12c3.93.92,7.94,1.71,11.95,2.34a169.28,169.28,0,0,0,26.78,2.14Z"/><rect class="cls-2" x="237.6" y="417.32" width="12.29" height="63.08"/></g></g></svg>