<svg xmlns="http://www.w3.org/2000/svg" viewBox="0 0 418.08 418.08"><defs><style>.cls-1{fill:none;}.cls-2{fill:#383836;}</style></defs><title>C_5_carta</title><g id="Livello_2" data-name="Livello 2"><g id="Livello_2-2" data-name="Livello 2"><circle class="cls-1" cx="209.04" cy="209.04" r="209.04"/><path class="cls-2" d="M243.54,124.5,236.62,62,292.8,85.29Zm7.58-43.17L253.3,101l15.53-12.36Z"/><path class="cls-2" d="M173.65,124.87,124.58,85.58l56.18-23.26ZM148.49,89,164,101.36l2.24-19.72Z"/><path class="cls-2" d="M62,181.46l23.27-56.17,39.21,49.25Zm26.64-32.21L81.33,167,101,164.78Z"/><path class="cls-2" d="M85.58,293.5,62.32,237.33l62.54,7.1Zm-3.93-41.61L89,269.59l12.38-15.46Z"/><path class="cls-2" d="M181.46,356.06l-56.17-23.27,49.25-39.2Zm-32.21-26.64L167,336.76l-2.18-19.7Z"/><path class="cls-2" d="M237.33,355.77l7.1-62.55L293.5,332.5Zm16.8-39-2.24,19.72,17.7-7.34Z"/><path class="cls-2" d="M332.79,292.79l-39.2-49.25,62.47-6.92ZM317.06,253.3l12.36,15.53,7.33-17.71Z"/><path class="cls-2" d="M355.77,180.76l-62.55-7.11,39.28-49.07Zm-39-16.8,19.72,2.24-7.34-17.71Z"/></g></g></svg>