<svg xmlns="http://www.w3.org/2000/svg" viewBox="0 0 487.77 487.77"><defs><style>.cls-1{fill:none;}.cls-2{fill:#383836;}</style></defs><title>A_4_cosmetica</title><g id="Livello_2" data-name="Livello 2"><g id="Livello_2-2" data-name="Livello 2"><circle class="cls-1" cx="243.88" cy="243.88" r="243.88"/><path class="cls-2" d="M370.72,125.42l-10.35-6.63a27.46,27.46,0,0,0-45.61-30.58l-10.07-7a39.75,39.75,0,0,1,66,44.26Z"/><path class="cls-2" d="M116.7,125.32a39.77,39.77,0,0,1,66.12-44.16l-10.07,7a27.48,27.48,0,0,0-45.69,30.5Z"/><path class="cls-2" d="M81,183a39.79,39.79,0,0,1,44.21-66.13l-6.59,10.37A27.5,27.5,0,0,0,88,172.9Z"/><path class="cls-2" d="M104,377.1a39.73,39.73,0,0,1-23-72.27L88,314.9a27.49,27.49,0,0,0,30.54,45.69l6.6,10.36A39.29,39.29,0,0,1,104,377.1Z"/><path class="cls-2" d="M150.14,423.52a39.39,39.39,0,0,1-22-6.64,40,40,0,0,1-11.47-54.41l10.36,6.6a27.49,27.49,0,0,0,45.69,30.54l10.07,7.05A39.83,39.83,0,0,1,150.14,423.52Z"/><path class="cls-2" d="M337.36,423.51a39.82,39.82,0,0,1-32.67-16.85l10.07-7.05a27.47,27.47,0,0,0,45.64-30.56l10.35-6.61a39.94,39.94,0,0,1-11.44,54.44A39.42,39.42,0,0,1,337.36,423.51Z"/><path class="cls-2" d="M383.52,377.11a39.34,39.34,0,0,1-21.25-6.19l6.61-10.35a27.5,27.5,0,0,0,30.59-45.68l7-10.06a39.75,39.75,0,0,1-23,72.28Z"/><path class="cls-2" d="M406.56,183l-7.07-10a27.48,27.48,0,0,0-30.63-45.62l-6.63-10.35a39.77,39.77,0,0,1,44.33,66Z"/></g></g></svg>