<svg xmlns="http://www.w3.org/2000/svg" viewBox="0 0 487.77 487.77"><defs><style>.cls-1{fill:none;}.cls-2{fill:#383836;}</style></defs><title>A_2_goielli</title><g id="Livello_2" data-name="Livello 2"><g id="Livello_2-2" data-name="Livello 2"><circle class="cls-1" cx="243.88" cy="243.88" r="243.88"/><path class="cls-2" d="M383.07,274.4a34,34,0,1,1,34-34A34,34,0,0,1,383.07,274.4Zm0-55.72a21.72,21.72,0,1,0,21.72,21.72A21.74,21.74,0,0,0,383.07,218.68Z"/><path class="cls-2" d="M104.43,274.4a34,34,0,1,1,34-34A34,34,0,0,1,104.43,274.4Zm0-55.72a21.72,21.72,0,1,0,21.72,21.72A21.74,21.74,0,0,0,104.43,218.68Z"/><path class="cls-2" d="M410.93,246.54V234.25h35.54a200.73,200.73,0,0,0-1.7-20.85,197.65,197.65,0,0,0-5-25,198.54,198.54,0,0,0-20.64-49.81A196.38,196.38,0,0,0,405,117.37,203.11,203.11,0,0,0,321.4,53a202.08,202.08,0,0,0-50.65-13.62,202,202,0,0,0-27-1.79l0-12.29a214.37,214.37,0,0,1,28.64,1.9A214.14,214.14,0,0,1,326.1,41.63a208.23,208.23,0,0,1,25.66,12.73,217,217,0,0,1,44.08,33.93,215,215,0,0,1,18.87,21.61,208,208,0,0,1,15.08,22.49,212.75,212.75,0,0,1,12.74,25.66,215.18,215.18,0,0,1,9.16,27.19A210.37,210.37,0,0,1,457,211.78a214.07,214.07,0,0,1,1.9,28.62v6.14Z"/><path class="cls-2" d="M76.56,246.54H28.63V240.4a214.49,214.49,0,0,1,1.9-28.64,210,210,0,0,1,5.27-26.54,211.33,211.33,0,0,1,21.91-52.85,207.2,207.2,0,0,1,15.08-22.5A214.08,214.08,0,0,1,91.65,88.29a217,217,0,0,1,44.09-33.94A208.26,208.26,0,0,1,161.4,41.62a214.67,214.67,0,0,1,53.73-14.44,213.89,213.89,0,0,1,28.6-1.9l0,12.29h0a201.38,201.38,0,0,0-27,1.79A202.84,202.84,0,0,0,166.1,53a199.1,199.1,0,0,0-24.18,12,202.83,202.83,0,0,0-59.37,52.38,195.65,195.65,0,0,0-14.22,21.21,200.7,200.7,0,0,0-12,24.22,204.3,204.3,0,0,0-8.63,25.59,199.06,199.06,0,0,0-5,25A201.34,201.34,0,0,0,41,234.25H76.56Z"/><rect class="cls-2" x="237.61" y="3.56" width="12.29" height="27.87"/></g></g></svg>