<svg xmlns="http://www.w3.org/2000/svg" viewBox="0 0 487.77 487.77"><defs><style>.cls-1{fill:none;}.cls-2{fill:#383836;}</style></defs><title>gioielli</title><g id="Livello_2" data-name="Livello 2"><g id="Livello_2-2" data-name="Livello 2"><circle class="cls-1" cx="243.88" cy="243.88" r="243.88"/><path class="cls-2" d="M243.74,137.61V125.33a21.74,21.74,0,0,0,19.87-12.93,20.89,20.89,0,0,0,1.73-6.59l0-.12a20.44,20.44,0,0,0,.11-2.09V103a21.74,21.74,0,0,0-21.73-21.1V69.59a34,34,0,0,1,34,33.13v.88a31.24,31.24,0,0,1-.17,3.36,33.21,33.21,0,0,1-2.74,10.42A34,34,0,0,1,243.74,137.61Z"/><path class="cls-2" d="M243.74,416.23V403.94a21.76,21.76,0,0,0,21.73-21.12v-.6a20.44,20.44,0,0,0-.11-2.09l0-.12a20.69,20.69,0,0,0-1.73-6.58,21.73,21.73,0,0,0-19.87-12.94V348.21a34,34,0,0,1,31.11,20.24,33.27,33.27,0,0,1,2.73,10.41,31,31,0,0,1,.17,3.36v.85a34.24,34.24,0,0,1-7.47,20.41A33.79,33.79,0,0,1,243.74,416.23Z"/><path class="cls-2" d="M243.74,388.36V376.07a134.36,134.36,0,0,0,25.47-2.44l.35-.06a5.3,5.3,0,0,0,.55-.1l.14,0a133.43,133.43,0,0,0,47-19.49l.19-.12c.22-.13.43-.27.65-.43a134.32,134.32,0,0,0,36.1-36.08l.17-.24a3.62,3.62,0,0,0,.22-.32l.21-.33a132.61,132.61,0,0,0,19.48-47l0-.14a4.94,4.94,0,0,0,.1-.53l.06-.36a134.15,134.15,0,0,0,0-50.94l-.06-.36a4.68,4.68,0,0,0-.1-.54l0-.14a132.25,132.25,0,0,0-19.49-47l-.2-.31a3.62,3.62,0,0,0-.22-.32l-.18-.25A132.18,132.18,0,0,0,339,149.76l-1-1a133.69,133.69,0,0,0-19.73-16.28l-.71-.48-.19-.11a130.41,130.41,0,0,0-22.55-12l4.68-11.37A143.52,143.52,0,0,1,324,121.58c.38.24.74.47,1.12.74a146.4,146.4,0,0,1,19.65,15.93h0l1.83,1.8a144.92,144.92,0,0,1,17.71,21.48c.2.27.38.54.56.82l.13.21A144.67,144.67,0,0,1,386.34,214l0,.13c.08.39.15.77.21,1.16a146.12,146.12,0,0,1,0,55.3c-.06.39-.13.76-.21,1.15l0,.13A145,145,0,0,1,365,323.25l-.14.22c-.18.28-.37.56-.56.83a146.65,146.65,0,0,1-39.28,39.24c-.33.23-.68.47-1.06.7a145.8,145.8,0,0,1-51.32,21.24l-.13,0c-.39.08-.76.15-1.15.21A146.62,146.62,0,0,1,243.74,388.36Z"/><path class="cls-2" d="M243.74,137.61a34,34,0,0,1-31.1-20.24A33.27,33.27,0,0,1,209.91,107a31.52,31.52,0,0,1-.18-3.36v-.88a34,34,0,0,1,34-33.13V81.88A21.76,21.76,0,0,0,222,103v.62a20.94,20.94,0,0,0,.11,2.1v.1a21,21,0,0,0,1.74,6.59,21.72,21.72,0,0,0,19.86,12.94Z"/><path class="cls-2" d="M243.74,416.23a33.78,33.78,0,0,1-26.54-12.76,34.24,34.24,0,0,1-7.46-20.4v-.85a31.24,31.24,0,0,1,.18-3.36,33.07,33.07,0,0,1,2.74-10.42,34,34,0,0,1,31.09-20.23v12.28a21.73,21.73,0,0,0-19.86,12.93,21.09,21.09,0,0,0-1.74,6.6v.1a20.94,20.94,0,0,0-.11,2.1v.6a21.76,21.76,0,0,0,21.72,21.12Z"/><path class="cls-2" d="M243.74,388.36a146.78,146.78,0,0,1-27.66-2.64c-.38-.06-.75-.13-1.13-.21l-.14,0a146.24,146.24,0,0,1-51.32-21.25c-.38-.23-.73-.47-1.11-.73a146.73,146.73,0,0,1-39.23-39.21c-.2-.28-.39-.57-.57-.85l-.13-.2a144.73,144.73,0,0,1-21.31-51.4l0-.14c-.08-.39-.15-.76-.21-1.14a146.22,146.22,0,0,1,0-55.32c.06-.39.13-.76.21-1.15l0-.12a145,145,0,0,1,21.31-51.41l.13-.2c.18-.28.37-.57.57-.84a144.92,144.92,0,0,1,17.71-21.48l1.86-1.8a146.63,146.63,0,0,1,19.71-16l1.06-.69a143.52,143.52,0,0,1,24.59-13.07l4.68,11.37a130.49,130.49,0,0,0-22.56,12L170,132l-.65.43a135.15,135.15,0,0,0-19.8,16.33L148,150.27a133,133,0,0,0-14.77,18.22l-.18.25c-.08.11-.15.23-.22.34l-.19.29a132.68,132.68,0,0,0-19.49,47l0,.14a5.12,5.12,0,0,0-.1.54l-.06.35a134.15,134.15,0,0,0,0,50.94l.06.34a5.3,5.3,0,0,0,.1.55l0,.15a132.25,132.25,0,0,0,19.49,47l.19.29c.07.11.14.23.22.34l.18.24a133.95,133.95,0,0,0,36,36c.28.2.49.34.71.47l.18.12a134,134,0,0,0,47,19.49l.14,0a5.3,5.3,0,0,0,.55.1l.34.06a134.44,134.44,0,0,0,25.47,2.44Z"/><path class="cls-2" d="M383.06,276.91a34,34,0,1,1,34-34A34.05,34.05,0,0,1,383.06,276.91Zm0-55.73a21.72,21.72,0,1,0,21.72,21.72A21.74,21.74,0,0,0,383.06,221.18Z"/><path class="cls-2" d="M104.42,276.91a34,34,0,1,1,34-34A34,34,0,0,1,104.42,276.91Zm0-55.73a21.72,21.72,0,1,0,21.72,21.72A21.75,21.75,0,0,0,104.42,221.18Z"/></g></g></svg>