<svg xmlns="http://www.w3.org/2000/svg" viewBox="0 0 418.08 418.08"><defs><style>.cls-1{fill:none;}.cls-2{fill:#383836;}</style></defs><title>C_2_legno</title><g id="Livello_2" data-name="Livello 2"><g id="Livello_2-2" data-name="Livello 2"><circle class="cls-1" cx="209.04" cy="209.04" r="209.04"/><path class="cls-2" d="M209.9,266a56.51,56.51,0,1,1,56.51-56.51A56.57,56.57,0,0,1,209.9,266Zm0-100.73a44.22,44.22,0,1,0,44.23,44.22A44.27,44.27,0,0,0,209.9,165.25Z"/><path class="cls-2" d="M209.9,245.23a35.76,35.76,0,1,1,35.76-35.76A35.8,35.8,0,0,1,209.9,245.23Zm0-59.23a23.47,23.47,0,1,0,23.47,23.47A23.5,23.5,0,0,0,209.9,186Z"/><path class="cls-2" d="M226.56,292.71c-5.21,0-10-1.39-14.39-2.66-5.41-1.57-10.08-2.92-14.24-1.33-12.21,4.68-24-3-34.37-9.68a96.88,96.88,0,0,0-11.91-7c-16.2-7.33-16.48-18.35-16.7-27.2a40,40,0,0,0-1.21-10.62c-.83-2.81-2.15-6.25-3.55-9.89-3.53-9.18-7.53-19.6-6.77-27.86,1-10.95,8.4-17.71,14.92-23.67,4.18-3.83,8.13-7.44,10.38-11.87,7.34-14.44,16.87-28.61,36.71-34.48,9.47-2.79,21.85.26,32.77,3,4.21,1,8.18,2,11.2,2.44,20.49,2.88,32.76,5.33,46.76,22.22,5.38,6.49,6.13,16.21,6.86,25.62.39,5,.75,9.75,1.78,13.23h0a58.18,58.18,0,0,0,4.7,10.83c3.32,6.36,6.75,12.94,4.57,23.15-3.28,15.4-11.56,21.91-21.15,29.44-2.54,2-5.18,4.07-7.93,6.46-2.53,2.2-5.34,5.73-8.32,9.47-6.19,7.77-13.22,16.58-22.41,19.3A26.87,26.87,0,0,1,226.56,292.71Zm-24.55-17c4.83,0,9.38,1.32,13.58,2.54,5.56,1.61,10.36,3,15.18,1.58,5.49-1.62,11.23-8.83,16.29-15.18,3.34-4.18,6.49-8.14,9.87-11.08,3-2.59,5.86-4.86,8.4-6.85,9-7,14.37-11.29,16.73-22.34,1.25-5.88-.52-9.28-3.46-14.91a69,69,0,0,1-5.58-13h0c-1.4-4.72-1.83-10.34-2.25-15.77-.55-7.14-1.18-15.23-4.07-18.72-11.2-13.51-19.54-15.16-39-17.89-3.65-.51-7.92-1.57-12.44-2.69-8.94-2.21-20.07-5-26.34-3.11-14.52,4.3-22.19,14.41-29.24,28.26-3.26,6.43-8.46,11.18-13,15.37-5.58,5.11-10.4,9.52-11,15.74-.5,5.41,3.1,14.79,6,22.33,1.49,3.87,2.89,7.53,3.86,10.81a50.9,50.9,0,0,1,1.71,13.79c.21,8.1.31,12.16,9.49,16.31a107,107,0,0,1,13.52,7.86c8.7,5.64,16.92,11,23.29,8.52A23.5,23.5,0,0,1,202,275.71Z"/></g></g></svg>