<svg xmlns="http://www.w3.org/2000/svg" viewBox="0 0 418.08 418.08"><defs><style>.cls-1{fill:none;}.cls-2{fill:#383836;}</style></defs><title>C_7_liquido</title><g id="Livello_2" data-name="Livello 2"><g id="Livello_2-2" data-name="Livello 2"><circle class="cls-1" cx="209.04" cy="209.04" r="209.04"/><path class="cls-2" d="M348.36,181.17a27.87,27.87,0,0,0,0,55.73c15.39,0,34.83-27.86,34.83-27.86S363.75,181.17,348.36,181.17Zm0,41.8a13.94,13.94,0,0,1,0-27.87c3.22.27,10.52,6.39,17.11,13.94C358.86,216.58,351.56,222.7,348.32,223Z"/><path class="cls-2" d="M181.17,69.72a27.87,27.87,0,1,0,55.73,0C236.9,54.34,209,34.9,209,34.9S181.17,54.34,181.17,69.72Zm41.8,0a13.94,13.94,0,0,1-27.87,0c.27-3.22,6.39-10.52,13.94-17.1C216.58,59.23,222.7,66.53,223,69.77Z"/><path class="cls-2" d="M69.72,236.91a27.87,27.87,0,1,0,0-55.73c-15.38,0-34.82,27.87-34.82,27.87S54.34,236.91,69.72,236.91Zm0-41.8a13.94,13.94,0,0,1,0,27.87c-3.22-.27-10.52-6.39-17.1-13.93C59.23,201.5,66.53,195.38,69.77,195.11Z"/><path class="cls-2" d="M236.91,348.36a27.87,27.87,0,0,0-55.73,0c0,15.39,27.87,34.83,27.87,34.83S236.91,363.75,236.91,348.36Zm-41.8,0a13.94,13.94,0,0,1,27.87,0c-.27,3.22-6.39,10.52-13.93,17.11C201.5,358.86,195.38,351.56,195.11,348.32Z"/></g></g></svg>