<svg xmlns="http://www.w3.org/2000/svg" viewBox="0 0 487.77 487.77"><defs><style>.cls-1{fill:none;}.cls-2{fill:#383836;}</style></defs><title>liquido</title><g id="Livello_2" data-name="Livello 2"><g id="Livello_2-2" data-name="Livello 2"><circle class="cls-1" cx="243.88" cy="243.88" r="243.88"/><path class="cls-2" d="M383.2,216a27.87,27.87,0,0,0,0,55.73c15.39,0,34.83-27.86,34.83-27.86S398.59,216,383.2,216Zm0,41.8a13.94,13.94,0,0,1,0-27.87c3.22.27,10.52,6.39,17.11,13.94C393.7,251.42,386.4,257.54,383.16,257.81Z"/><path class="cls-2" d="M216,104.56a27.87,27.87,0,1,0,55.73,0c0-15.38-27.86-34.82-27.86-34.82S216,89.18,216,104.56Zm41.8,0a13.94,13.94,0,0,1-27.87,0c.27-3.22,6.39-10.52,13.94-17.1C251.42,94.07,257.54,101.37,257.81,104.61Z"/><path class="cls-2" d="M104.56,271.75a27.87,27.87,0,1,0,0-55.73c-15.38,0-34.82,27.87-34.82,27.87S89.18,271.75,104.56,271.75Zm0-41.8a13.94,13.94,0,0,1,0,27.87c-3.22-.27-10.52-6.39-17.1-13.93C94.07,236.34,101.37,230.22,104.61,230Z"/><path class="cls-2" d="M271.75,383.2a27.87,27.87,0,0,0-55.73,0c0,15.39,27.87,34.83,27.87,34.83S271.75,398.59,271.75,383.2Zm-41.8,0a13.94,13.94,0,0,1,27.87,0c-.27,3.22-6.39,10.52-13.93,17.11C236.34,393.7,230.22,386.4,230,383.16Z"/></g></g></svg>