<svg xmlns="http://www.w3.org/2000/svg" viewBox="0 0 418.08 418.08"><defs><style>.cls-1{fill:none;}.cls-2{fill:#383836;}</style></defs><title>B_5_miscelatura</title><g id="Livello_2" data-name="Livello 2"><g id="Livello_2-2" data-name="Livello 2"><circle class="cls-1" cx="209.04" cy="209.04" r="209.04"/><path class="cls-2" d="M130.17,51.59A36.34,36.34,0,0,1,138.28,46a32.69,32.69,0,0,1,28-.34A32,32,0,0,1,180,58a30.83,30.83,0,0,1,4.52,17.41,24.92,24.92,0,0,0,3.5,14,25.9,25.9,0,0,0,11.05,10,28.82,28.82,0,0,0,7.37,2.23,29.25,29.25,0,0,0,7.82,0,28.75,28.75,0,0,0,7.58-2.31,30.27,30.27,0,0,0,6.68-4.48,30.56,30.56,0,0,1-6.32,5.15,30,30,0,0,1-7.64,3.13,28.56,28.56,0,0,1-16.65-.91,29.71,29.71,0,0,1-13.68-10.28,30.22,30.22,0,0,1-5.78-16.57,24.09,24.09,0,0,0-4.76-13.19,23.61,23.61,0,0,0-10.95-8.05,25.36,25.36,0,0,0-6.58-1.26,24.77,24.77,0,0,0-6.56.7,24,24,0,0,0-6,2.53,24.37,24.37,0,0,0-4.89,4.09l-.11.12A6.08,6.08,0,0,1,129.79,52C129.91,51.83,130.05,51.7,130.17,51.59Z"/><path class="cls-2" d="M41.93,153.47a36.28,36.28,0,0,1,1.82-9.65,35.1,35.1,0,0,1,4.49-8.61A35.7,35.7,0,0,1,55,128.36a35.1,35.1,0,0,1,8.32-4.55,31.91,31.91,0,0,1,18.4-1.08,30.93,30.93,0,0,1,15.52,9.12,24.86,24.86,0,0,0,12.39,7.45,25.9,25.9,0,0,0,14.9-.74,28.87,28.87,0,0,0,6.79-3.63,29.8,29.8,0,0,0,5.52-5.53,29.18,29.18,0,0,0,3.72-7,29.93,29.93,0,0,0,1.56-7.89,30.47,30.47,0,0,1-.83,8.11,29.89,29.89,0,0,1-3.19,7.62,28.71,28.71,0,0,1-12.41,11.13,29.73,29.73,0,0,1-16.94,2.4,30.23,30.23,0,0,1-15.81-7.63,24,24,0,0,0-12.69-6,23.62,23.62,0,0,0-13.44,2,22.67,22.67,0,0,0-9.69,8.89,24.34,24.34,0,0,0-2.42,6,24.68,24.68,0,0,0-.57,6.34v.17a6.08,6.08,0,1,1-12.16.36C41.92,153.83,41.93,153.64,41.93,153.47Z"/><path class="cls-2" d="M51.59,287.91a36.28,36.28,0,0,1-5.55-8.1A32.87,32.87,0,0,1,43,261a34.4,34.4,0,0,1,2.66-9.1A32,32,0,0,1,58,238.07a30.91,30.91,0,0,1,17.41-4.52,24.91,24.91,0,0,0,14-3.49,25.92,25.92,0,0,0,10-11.06,28.58,28.58,0,0,0,2.23-7.37,29.25,29.25,0,0,0,0-7.82,28.86,28.86,0,0,0-2.31-7.58,30,30,0,0,0-4.48-6.67,30.56,30.56,0,0,1,5.15,6.32,29.9,29.9,0,0,1,3.13,7.64,28.53,28.53,0,0,1-.91,16.64,29.66,29.66,0,0,1-10.28,13.68,30.14,30.14,0,0,1-16.57,5.78,24.09,24.09,0,0,0-13.19,4.76,23.66,23.66,0,0,0-8.05,11,25.35,25.35,0,0,0-1.26,6.59,24.86,24.86,0,0,0,.7,6.56,24.19,24.19,0,0,0,2.53,6,24.59,24.59,0,0,0,4.09,4.88l.12.12A6.08,6.08,0,1,1,52,288.29,4.4,4.4,0,0,1,51.59,287.91Z"/><path class="cls-2" d="M153.47,376.15a36.27,36.27,0,0,1-9.65-1.81,32.83,32.83,0,0,1-15.46-11.21,34.91,34.91,0,0,1-4.55-8.32,32,32,0,0,1-1.08-18.4,31,31,0,0,1,9.11-15.51,24.91,24.91,0,0,0,7.46-12.4,25.87,25.87,0,0,0-.74-14.89,28.31,28.31,0,0,0-3.63-6.79,29.55,29.55,0,0,0-5.53-5.53,29.18,29.18,0,0,0-7-3.72,29.92,29.92,0,0,0-7.89-1.55,27.85,27.85,0,0,1,15.73,4,28.66,28.66,0,0,1,11.13,12.42,29.72,29.72,0,0,1,2.4,16.94,30.16,30.16,0,0,1-7.63,15.8,24.1,24.1,0,0,0-6,12.7,23.59,23.59,0,0,0,2,13.43,22.52,22.52,0,0,0,8.89,9.69,24.14,24.14,0,0,0,6,2.43,24.67,24.67,0,0,0,6.34.56h.17a6.08,6.08,0,1,1,.36,12.16Z"/><path class="cls-2" d="M287.91,366.5a36.23,36.23,0,0,1-8.1,5.54,33,33,0,0,1-18.86,3,34.79,34.79,0,0,1-9.1-2.67,31.92,31.92,0,0,1-13.78-12.24,31,31,0,0,1-4.52-17.42,24.9,24.9,0,0,0-3.49-14,25.92,25.92,0,0,0-11.06-10,28.6,28.6,0,0,0-7.37-2.24,29.67,29.67,0,0,0-7.82,0,29.24,29.24,0,0,0-7.58,2.31,30.33,30.33,0,0,0-6.67,4.48,28.13,28.13,0,0,1,22.29-9.06,30.94,30.94,0,0,1,8.31,1.69,29.66,29.66,0,0,1,13.68,10.28,30.17,30.17,0,0,1,5.78,16.57,24.09,24.09,0,0,0,4.76,13.19,23.59,23.59,0,0,0,11,8,25.37,25.37,0,0,0,6.59,1.27,25.72,25.72,0,0,0,6.56-.7,24.34,24.34,0,0,0,5.95-2.53,24.71,24.71,0,0,0,4.89-4.09l.12-.13a6.08,6.08,0,1,1,8.85,8.35C288.17,366.26,288,366.38,287.91,366.5Z"/><path class="cls-2" d="M376.15,264.61a36.27,36.27,0,0,1-1.81,9.65,32.83,32.83,0,0,1-11.21,15.46,34.56,34.56,0,0,1-8.32,4.55,32,32,0,0,1-18.4,1.09,31,31,0,0,1-15.51-9.12,24.82,24.82,0,0,0-12.4-7.45,25.87,25.87,0,0,0-14.89.73,26.56,26.56,0,0,0-12.32,9.17,29.12,29.12,0,0,0-3.72,7,30.08,30.08,0,0,0-1.55,7.89,30.5,30.5,0,0,1,.82-8.11,30.94,30.94,0,0,1,3.19-7.62,31.28,31.28,0,0,1,5.34-6.44,31,31,0,0,1,7.08-4.68,29.65,29.65,0,0,1,16.94-2.4,30.15,30.15,0,0,1,15.8,7.62,24.11,24.11,0,0,0,12.7,6,23.51,23.51,0,0,0,13.43-2.06A22.52,22.52,0,0,0,361,277a24.07,24.07,0,0,0,2.43-6,24.71,24.71,0,0,0,.56-6.35v-.17a6.08,6.08,0,0,1,12.16-.36C376.16,264.26,376.16,264.44,376.15,264.61Z"/><path class="cls-2" d="M366.5,130.17a36.29,36.29,0,0,1,5.54,8.11,32.93,32.93,0,0,1,3,18.85,34.79,34.79,0,0,1-2.67,9.1A31.92,31.92,0,0,1,360.14,180a30.88,30.88,0,0,1-17.42,4.52,24.83,24.83,0,0,0-14,3.5,25.83,25.83,0,0,0-10,11.05,28.84,28.84,0,0,0-2.24,7.37,26.82,26.82,0,0,0,2.32,15.4,30.63,30.63,0,0,0,4.48,6.68,28.13,28.13,0,0,1-9.06-22.3,31,31,0,0,1,1.69-8.31,29.71,29.71,0,0,1,10.28-13.68,30.17,30.17,0,0,1,16.57-5.78,24.09,24.09,0,0,0,13.19-4.76,23.54,23.54,0,0,0,8-10.95,22.47,22.47,0,0,0,.57-13.14,24.41,24.41,0,0,0-2.53-6,24.71,24.71,0,0,0-4.09-4.89l-.12-.11a6.08,6.08,0,0,1,8.34-8.86C366.26,129.91,366.38,130,366.5,130.17Z"/><path class="cls-2" d="M264.61,41.93a36.28,36.28,0,0,1,9.65,1.82,34.93,34.93,0,0,1,8.61,4.49A35.42,35.42,0,0,1,289.72,55a34.4,34.4,0,0,1,4.55,8.32,32,32,0,0,1,1.09,18.4,31,31,0,0,1-9.12,15.52,24.79,24.79,0,0,0-7.45,12.39,25.9,25.9,0,0,0,.73,14.9,28.9,28.9,0,0,0,3.64,6.79,29.2,29.2,0,0,0,5.53,5.52,29.51,29.51,0,0,0,7,3.73,30.49,30.49,0,0,0,7.89,1.55,30.51,30.51,0,0,1-8.11-.83,30.2,30.2,0,0,1-7.62-3.19,28.77,28.77,0,0,1-11.12-12.41,29.56,29.56,0,0,1-2.4-16.94,30.22,30.22,0,0,1,7.62-15.81,24,24,0,0,0,6-12.69,23.62,23.62,0,0,0-2.06-13.44A22.67,22.67,0,0,0,277,57.07a24.43,24.43,0,0,0-6-2.42,24.76,24.76,0,0,0-6.35-.57h-.17a6.08,6.08,0,0,1-.36-12.16Z"/></g></g></svg>