<svg xmlns="http://www.w3.org/2000/svg" viewBox="0 0 487.77 487.77"><defs><style>.cls-1{fill:none;}.cls-2{fill:#383836;}</style></defs><title>oreficeria</title><g id="Livello_2" data-name="Livello 2"><g id="Livello_2-2" data-name="Livello 2"><circle class="cls-1" cx="243.88" cy="243.88" r="243.88"/><path class="cls-2" d="M179.08,91.07A22.9,22.9,0,0,0,168.47,89a29.27,29.27,0,0,1,3.22-12.21,29.13,29.13,0,0,1,11.83,4.45A22.72,22.72,0,0,0,179.08,91.07Z"/><path class="cls-2" d="M207.59,104.86a22.84,22.84,0,0,0,5-9.6,29.48,29.48,0,0,1,10.83,6.51,31.44,31.44,0,0,1-3.39,5.65c-.31.42-.65.83-1,1.23l-.95,1c-.63.69-1.26,1.43-1.89,2.23-.7-.64-1.42-1.33-2.13-2.08L213,108.66c-.34-.32-.67-.63-1-.92A20.94,20.94,0,0,0,207.59,104.86Z"/><path class="cls-2" d="M247.07,144.46a29.78,29.78,0,0,1-9.26-8.58,23,23,0,0,0,7.84-7.47,23,23,0,0,0,9,6A29.42,29.42,0,0,1,247.07,144.46Z"/><path class="cls-2" d="M90,181.65a22.82,22.82,0,0,0-9,6,29.17,29.17,0,0,1-6.36-10.92,29.26,29.26,0,0,1,11.51-5.21A22.75,22.75,0,0,0,90,181.65Z"/><path class="cls-2" d="M119.92,171.24a23,23,0,0,0-3.26-10.32,29.36,29.36,0,0,1,12.25-3,31.34,31.34,0,0,1,1.61,6.39c.07.52.12,1.05.17,1.56l0,1.38q.06,1.41.24,2.91c-1,0-1.95.07-3,0l-1.56-.06c-.47,0-.92,0-1.38.08A21,21,0,0,0,119.92,171.24Z"/><path class="cls-2" d="M175.83,171.32a29.68,29.68,0,0,1-12.61.49,23.07,23.07,0,0,0,.26-10.83,23,23,0,0,0,10.61-2.16A29.4,29.4,0,0,1,175.83,171.32Z"/><path class="cls-2" d="M91.07,308.69A22.9,22.9,0,0,0,89,319.3a29.42,29.42,0,0,1-12.21-3.22,29.13,29.13,0,0,1,4.45-11.83A22.91,22.91,0,0,0,91.07,308.69Z"/><path class="cls-2" d="M104.86,280.17a23,23,0,0,0-9.6-5,29.36,29.36,0,0,1,6.51-10.82,31.41,31.41,0,0,1,5.65,3.38c.42.32.83.66,1.23,1l1,.95c.69.63,1.43,1.27,2.22,1.89-.63.71-1.32,1.42-2.07,2.14l-1.14,1.07c-.32.34-.63.67-.92,1A21.2,21.2,0,0,0,104.86,280.17Z"/><path class="cls-2" d="M144.46,240.69a29.56,29.56,0,0,1-8.58,9.26,23,23,0,0,0-7.47-7.83,23.11,23.11,0,0,0,6-9A29.51,29.51,0,0,1,144.46,240.69Z"/><path class="cls-2" d="M181.65,397.76a23,23,0,0,0,6,9,29.39,29.39,0,0,1-10.92,6.36,29.32,29.32,0,0,1-5.21-11.51A22.87,22.87,0,0,0,181.65,397.76Z"/><path class="cls-2" d="M171.24,367.85a22.87,22.87,0,0,0-10.32,3.26,29.37,29.37,0,0,1-3-12.26,30.66,30.66,0,0,1,6.39-1.6c.52-.08,1.05-.13,1.57-.18l1.37,0c.94,0,1.91-.11,2.91-.23,0,.95.07,1.94,0,3l-.06,1.57c0,.47,0,.92.08,1.38A21.14,21.14,0,0,0,171.24,367.85Z"/><path class="cls-2" d="M171.32,311.93a29.56,29.56,0,0,1,.48,12.62,23,23,0,0,0-10.82-.27,22.94,22.94,0,0,0-2.16-10.6A29.55,29.55,0,0,1,171.32,311.93Z"/><path class="cls-2" d="M308.69,396.69a22.77,22.77,0,0,0,10.61,2.1A29.5,29.5,0,0,1,316.08,411a29.42,29.42,0,0,1-11.83-4.45A23,23,0,0,0,308.69,396.69Z"/><path class="cls-2" d="M280.17,382.91a22.89,22.89,0,0,0-5,9.6A29.5,29.5,0,0,1,264.36,386a31.5,31.5,0,0,1,3.38-5.66c.32-.42.66-.83,1-1.23l.95-1c.63-.69,1.27-1.43,1.89-2.22.71.64,1.42,1.33,2.14,2.07l1.07,1.15c.34.32.67.62,1,.92A21.61,21.61,0,0,0,280.17,382.91Z"/><path class="cls-2" d="M240.69,343.31a29.33,29.33,0,0,1,9.26,8.58,23.11,23.11,0,0,0-7.84,7.47,22.78,22.78,0,0,0-9-6A29.42,29.42,0,0,1,240.69,343.31Z"/><path class="cls-2" d="M397.76,306.11a22.85,22.85,0,0,0,9-6A29.47,29.47,0,0,1,413.11,311a29.35,29.35,0,0,1-11.51,5.22A22.91,22.91,0,0,0,397.76,306.11Z"/><path class="cls-2" d="M367.85,316.53a22.79,22.79,0,0,0,3.26,10.31,29.37,29.37,0,0,1-12.26,3.05,31.14,31.14,0,0,1-1.6-6.39c-.08-.52-.13-1.05-.18-1.56l0-1.38c0-.93-.11-1.9-.23-2.91.95,0,1.94-.06,3,0l1.57.05c.47,0,.92,0,1.38-.07A21.62,21.62,0,0,0,367.85,316.53Z"/><path class="cls-2" d="M311.93,316.44a29.56,29.56,0,0,1,12.62-.48,23,23,0,0,0-.27,10.82,23,23,0,0,0-10.6,2.17A29.57,29.57,0,0,1,311.93,316.44Z"/><path class="cls-2" d="M396.69,179.08a22.77,22.77,0,0,0,2.1-10.61A29.2,29.2,0,0,1,411,171.69a29.42,29.42,0,0,1-4.45,11.83A22.76,22.76,0,0,0,396.69,179.08Z"/><path class="cls-2" d="M382.91,207.59a22.72,22.72,0,0,0,9.6,5A29.53,29.53,0,0,1,386,223.41a31.53,31.53,0,0,1-5.66-3.39c-.42-.31-.83-.65-1.23-1l-1-.95q-1-.94-2.22-1.89c.64-.7,1.33-1.42,2.07-2.13l1.15-1.07c.32-.34.62-.68.92-1A21.34,21.34,0,0,0,382.91,207.59Z"/><path class="cls-2" d="M343.31,247.07a29.55,29.55,0,0,1,8.58-9.26,23,23,0,0,0,7.47,7.84,22.82,22.82,0,0,0-6,9A29.33,29.33,0,0,1,343.31,247.07Z"/><path class="cls-2" d="M306.11,90a22.71,22.71,0,0,0-6-9A29.33,29.33,0,0,1,311,74.66a29.29,29.29,0,0,1,5.22,11.51A22.67,22.67,0,0,0,306.11,90Z"/><path class="cls-2" d="M316.53,119.92a23,23,0,0,0,10.31-3.26,29.36,29.36,0,0,1,3.05,12.25,31.18,31.18,0,0,1-6.39,1.61c-.52.08-1.05.12-1.56.18l-1.38,0q-1.4.06-2.91.24c0-1-.06-1.95,0-3l.05-1.56c0-.47,0-.92-.07-1.38A21.52,21.52,0,0,0,316.53,119.92Z"/><path class="cls-2" d="M316.44,175.84a29.56,29.56,0,0,1-.48-12.62,23,23,0,0,0,10.82.26,22.93,22.93,0,0,0,2.17,10.6A29.42,29.42,0,0,1,316.44,175.84Z"/></g></g></svg>