<svg xmlns="http://www.w3.org/2000/svg" viewBox="0 0 418.08 418.08"><defs><style>.cls-1{fill:none;}.cls-2{fill:#383836;}</style></defs><title>B_4_oreficeria</title><g id="Livello_2" data-name="Livello 2"><g id="Livello_2-2" data-name="Livello 2"><circle class="cls-1" cx="209.04" cy="209.04" r="209.04"/><path class="cls-2" d="M144.24,56.23a22.9,22.9,0,0,0-10.61-2.1,29.12,29.12,0,0,1,3.22-12.21,29.13,29.13,0,0,1,11.83,4.45A22.67,22.67,0,0,0,144.24,56.23Z"/><path class="cls-2" d="M172.75,70a22.84,22.84,0,0,0,5-9.6,29.48,29.48,0,0,1,10.83,6.51,31.44,31.44,0,0,1-3.39,5.65c-.31.42-.65.83-1,1.23l-.95,1q-.94,1-1.89,2.22-1.06-.94-2.13-2.07l-1.07-1.14c-.35-.32-.68-.63-1-.92A20.94,20.94,0,0,0,172.75,70Z"/><path class="cls-2" d="M212.23,109.62A29.67,29.67,0,0,1,203,101a23,23,0,0,0,7.84-7.47,23,23,0,0,0,9,6A29.42,29.42,0,0,1,212.23,109.62Z"/><path class="cls-2" d="M55.17,146.81a22.82,22.82,0,0,0-9,6,29.25,29.25,0,0,1-6.36-10.92,29.26,29.26,0,0,1,11.51-5.21A22.63,22.63,0,0,0,55.17,146.81Z"/><path class="cls-2" d="M85.08,136.4a23,23,0,0,0-3.26-10.32,29.36,29.36,0,0,1,12.25-3,31.34,31.34,0,0,1,1.61,6.39c.07.52.12,1.05.17,1.56l0,1.38q.06,1.41.24,2.91c-1,0-1.95.07-3,0l-1.56-.06c-.47,0-.92,0-1.38.08A21,21,0,0,0,85.08,136.4Z"/><path class="cls-2" d="M141,136.48a29.51,29.51,0,0,1-12.61.48,23,23,0,0,0,.26-10.82,22.92,22.92,0,0,0,10.6-2.16A29.24,29.24,0,0,1,141,136.48Z"/><path class="cls-2" d="M56.23,273.84a23,23,0,0,0-2.1,10.62,29.29,29.29,0,0,1-12.21-3.23,29.14,29.14,0,0,1,4.45-11.82A22.77,22.77,0,0,0,56.23,273.84Z"/><path class="cls-2" d="M70,245.33a23,23,0,0,0-9.6-5,29.36,29.36,0,0,1,6.51-10.82,31.41,31.41,0,0,1,5.65,3.38c.42.32.83.66,1.23,1l1,1c.69.63,1.43,1.27,2.22,1.89-.64.71-1.33,1.42-2.07,2.14l-1.14,1.07c-.32.34-.63.67-.92,1A21.2,21.2,0,0,0,70,245.33Z"/><path class="cls-2" d="M109.62,205.85a29.56,29.56,0,0,1-8.58,9.26,23.21,23.21,0,0,0-7.47-7.84,23,23,0,0,0,6-9A29.51,29.51,0,0,1,109.62,205.85Z"/><path class="cls-2" d="M146.81,362.92a23,23,0,0,0,6,9,29.39,29.39,0,0,1-10.92,6.36,29.32,29.32,0,0,1-5.21-11.51A22.87,22.87,0,0,0,146.81,362.92Z"/><path class="cls-2" d="M136.4,333a22.87,22.87,0,0,0-10.32,3.26A29.37,29.37,0,0,1,123,324a30.66,30.66,0,0,1,6.39-1.6c.52-.08,1.05-.13,1.56-.18l1.38,0c.94,0,1.91-.11,2.91-.23,0,1,.07,1.94,0,3l-.06,1.57c0,.47,0,.92.08,1.38A21.14,21.14,0,0,0,136.4,333Z"/><path class="cls-2" d="M136.48,277.09a29.56,29.56,0,0,1,.48,12.62,23,23,0,0,0-10.82-.27,22.94,22.94,0,0,0-2.16-10.6A29.53,29.53,0,0,1,136.48,277.09Z"/><path class="cls-2" d="M273.84,361.85a22.84,22.84,0,0,0,10.62,2.1,29.5,29.5,0,0,1-3.22,12.22,29.42,29.42,0,0,1-11.83-4.45A22.85,22.85,0,0,0,273.84,361.85Z"/><path class="cls-2" d="M245.33,348.07a22.83,22.83,0,0,0-5,9.6,29.5,29.5,0,0,1-10.82-6.51,31.5,31.5,0,0,1,3.38-5.66c.32-.42.66-.83,1-1.23l1-1c.63-.69,1.27-1.43,1.89-2.22.71.64,1.42,1.33,2.14,2.07l1.07,1.15c.34.32.67.62,1,.92A21.61,21.61,0,0,0,245.33,348.07Z"/><path class="cls-2" d="M205.85,308.47a29.33,29.33,0,0,1,9.26,8.58,23.11,23.11,0,0,0-7.84,7.47,22.78,22.78,0,0,0-9-6A29.42,29.42,0,0,1,205.85,308.47Z"/><path class="cls-2" d="M362.92,271.27a22.85,22.85,0,0,0,9-6,29.47,29.47,0,0,1,6.36,10.92,29.35,29.35,0,0,1-11.51,5.22A22.91,22.91,0,0,0,362.92,271.27Z"/><path class="cls-2" d="M333,281.69A22.79,22.79,0,0,0,336.27,292,29.37,29.37,0,0,1,324,295.05a30.51,30.51,0,0,1-1.6-6.39c-.08-.52-.13-1.05-.18-1.56l0-1.38c0-.93-.11-1.9-.23-2.91,1-.05,1.94-.06,3,0l1.57.05c.47,0,.92,0,1.38-.07A21.62,21.62,0,0,0,333,281.69Z"/><path class="cls-2" d="M277.09,281.6a29.56,29.56,0,0,1,12.62-.48,23,23,0,0,0-.27,10.82,22.93,22.93,0,0,0-10.6,2.17A29.57,29.57,0,0,1,277.09,281.6Z"/><path class="cls-2" d="M361.85,144.24a22.77,22.77,0,0,0,2.1-10.61,29.2,29.2,0,0,1,12.22,3.22,29.42,29.42,0,0,1-4.45,11.83A22.76,22.76,0,0,0,361.85,144.24Z"/><path class="cls-2" d="M348.07,172.75a22.72,22.72,0,0,0,9.6,5,29.61,29.61,0,0,1-6.51,10.83,31.53,31.53,0,0,1-5.66-3.39c-.42-.31-.83-.65-1.23-1l-1-.95q-1-.94-2.22-1.89c.64-.7,1.33-1.42,2.07-2.13l1.15-1.07c.32-.34.62-.68.92-1A21.34,21.34,0,0,0,348.07,172.75Z"/><path class="cls-2" d="M308.47,212.23a29.44,29.44,0,0,1,8.58-9.26,23,23,0,0,0,7.47,7.84,22.82,22.82,0,0,0-6,9A29.33,29.33,0,0,1,308.47,212.23Z"/><path class="cls-2" d="M271.27,55.17a22.71,22.71,0,0,0-6-9,29.33,29.33,0,0,1,10.92-6.36,29.29,29.29,0,0,1,5.22,11.51A22.67,22.67,0,0,0,271.27,55.17Z"/><path class="cls-2" d="M281.69,85.08A23,23,0,0,0,292,81.82a29.32,29.32,0,0,1,3.05,12.25,31.18,31.18,0,0,1-6.39,1.61c-.52.08-1.05.12-1.56.17l-1.38,0q-1.39.06-2.91.24c0-1-.06-1.95,0-3l.05-1.56c0-.47,0-.92-.07-1.38A21.52,21.52,0,0,0,281.69,85.08Z"/><path class="cls-2" d="M281.6,141a29.56,29.56,0,0,1-.48-12.62,23,23,0,0,0,10.82.26,22.93,22.93,0,0,0,2.17,10.6A29.42,29.42,0,0,1,281.6,141Z"/></g></g></svg>