<svg xmlns="http://www.w3.org/2000/svg" viewBox="0 0 418.08 418.08"><defs><style>.cls-1{fill:none;}.cls-2{fill:#383836;}</style></defs><title>C_6_pietra</title><g id="Livello_2" data-name="Livello 2"><g id="Livello_2-2" data-name="Livello 2"><circle class="cls-1" cx="209.04" cy="209.04" r="209.04"/><path class="cls-2" d="M307.55,138.81l-28.28-28.27,28.28-28.28,28.28,28.28Zm-10.91-28.27,10.91,10.9,10.9-10.9-10.9-10.91Z"/><path class="cls-2" d="M110.61,138.92,82.33,110.64l28.28-28.27,28.28,28.27ZM99.7,110.64l10.91,10.91,10.9-10.91-10.9-10.9Z"/><path class="cls-2" d="M110.54,335.82,82.26,307.55l28.28-28.28,28.28,28.28ZM99.63,307.55l10.91,10.9,10.9-10.9-10.9-10.91Z"/><path class="cls-2" d="M307.51,335.82l-28.28-28.27,28.28-28.28,28.28,28.28Zm-10.9-28.27,10.9,10.9,10.9-10.9-10.9-10.91Z"/></g></g></svg>