<svg xmlns="http://www.w3.org/2000/svg" viewBox="0 0 487.77 487.77"><defs><style>.cls-1{fill:none;}.cls-2{fill:#383836;}</style></defs><title>pietra</title><g id="Livello_2" data-name="Livello 2"><g id="Livello_2-2" data-name="Livello 2"><circle class="cls-1" cx="243.88" cy="243.88" r="243.88"/><path class="cls-2" d="M342.39,173.66l-28.28-28.28,28.28-28.28,28.28,28.28Zm-10.91-28.28,10.91,10.9,10.9-10.9-10.9-10.91Z"/><path class="cls-2" d="M145.45,173.76l-28.28-28.28,28.28-28.27,28.28,28.27Zm-10.91-28.28,10.91,10.91,10.9-10.91-10.9-10.9Z"/><path class="cls-2" d="M145.38,370.66,117.1,342.39l28.28-28.28,28.28,28.28Zm-10.9-28.27,10.9,10.9,10.9-10.9-10.9-10.91Z"/><path class="cls-2" d="M342.35,370.66l-28.28-28.27,28.28-28.28,28.28,28.28Zm-10.9-28.27,10.9,10.9,10.9-10.9-10.9-10.91Z"/></g></g></svg>