<svg xmlns="http://www.w3.org/2000/svg" viewBox="0 0 487.77 487.77"><defs><style>.cls-1{fill:none;}.cls-2{fill:#383836;}</style></defs><title>pittura</title><g id="Livello_2" data-name="Livello 2"><g id="Livello_2-2" data-name="Livello 2"><circle class="cls-1" cx="243.88" cy="243.88" r="243.88"/><path class="cls-2" d="M168.46,89a25.19,25.19,0,0,1,5.77-6.37,29.65,29.65,0,0,1,7.91-4.2A31.06,31.06,0,0,1,191.29,77a32.25,32.25,0,0,1,9.38,1.54A31.46,31.46,0,0,1,216.16,90a32.32,32.32,0,0,1,6,18.71A24.22,24.22,0,0,0,235.07,130c8,4.38,18.94,4.38,28.52-1.57A25.69,25.69,0,0,1,249.91,139a31.05,31.05,0,0,1-9.15,1.45,30.71,30.71,0,0,1-24.89-13,32.36,32.36,0,0,1-6-18.72A24.19,24.19,0,0,0,197,87.39C189,83,178,83,168.46,89Z"/><path class="cls-2" d="M81,187.68a25.08,25.08,0,0,1-.41-8.58,29.55,29.55,0,0,1,2.62-8.57A31.06,31.06,0,0,1,88.65,163a32,32,0,0,1,7.73-5.55,31.5,31.5,0,0,1,19.07-2.84,32.28,32.28,0,0,1,17.47,9,24.25,24.25,0,0,0,24.17,5.92c8.74-2.56,16.49-10.31,19-21.28A25.64,25.64,0,0,1,174,165.44a31,31,0,0,1-5.43,7.49,31.8,31.8,0,0,1-7.73,5.55,31.47,31.47,0,0,1-19.08,2.84,32.3,32.3,0,0,1-17.47-9,24.22,24.22,0,0,0-24.18-5.93C91.31,168.94,83.56,176.7,81,187.68Z"/><path class="cls-2" d="M89,319.31a25.38,25.38,0,0,1-6.37-5.77,29.86,29.86,0,0,1-4.2-7.92A30.94,30.94,0,0,1,77,296.48a32.25,32.25,0,0,1,1.54-9.38A31.53,31.53,0,0,1,90,271.6a32.31,32.31,0,0,1,18.71-6A24.24,24.24,0,0,0,130,252.7c4.37-8,4.37-18.95-1.58-28.52A25.65,25.65,0,0,1,139,237.86a31.05,31.05,0,0,1,1.45,9.15,30.71,30.71,0,0,1-13,24.88,32.29,32.29,0,0,1-18.72,6,24.21,24.21,0,0,0-21.29,12.9C83,298.77,83,309.75,89,319.31Z"/><path class="cls-2" d="M187.68,406.75a25.07,25.07,0,0,1-8.58.42,29.57,29.57,0,0,1-8.57-2.63,30.79,30.79,0,0,1-7.49-5.43,30.66,30.66,0,0,1-8.39-26.79,32.34,32.34,0,0,1,9-17.48,24.25,24.25,0,0,0,5.92-24.17c-2.56-8.73-10.31-16.49-21.28-19.05a25.64,25.64,0,0,1,17.16,2.19,31.3,31.3,0,0,1,7.49,5.44,30.67,30.67,0,0,1,8.39,26.8,32.29,32.29,0,0,1-9,17.48,24.2,24.2,0,0,0-5.93,24.17C168.94,396.45,176.7,404.21,187.68,406.75Z"/><path class="cls-2" d="M319.31,398.79a25.17,25.17,0,0,1-5.77,6.36,29.86,29.86,0,0,1-7.92,4.2,30.62,30.62,0,0,1-9.14,1.46,30.73,30.73,0,0,1-24.88-13,32.34,32.34,0,0,1-6-18.71,24.23,24.23,0,0,0-12.9-21.28c-8-4.37-18.95-4.38-28.52,1.57a25.68,25.68,0,0,1,13.68-10.58,31.39,31.39,0,0,1,9.15-1.46,31.92,31.92,0,0,1,9.38,1.54,31.51,31.51,0,0,1,15.5,11.49,32.26,32.26,0,0,1,6,18.72,24.21,24.21,0,0,0,12.9,21.29C298.77,404.76,309.75,404.75,319.31,398.79Z"/><path class="cls-2" d="M406.75,300.08a25.09,25.09,0,0,1,.42,8.58,29.48,29.48,0,0,1-2.63,8.57,31,31,0,0,1-5.43,7.5,32,32,0,0,1-7.72,5.54,31.53,31.53,0,0,1-19.07,2.85,32.34,32.34,0,0,1-17.48-9,24.25,24.25,0,0,0-24.17-5.92c-8.73,2.56-16.49,10.3-19.05,21.28a25.63,25.63,0,0,1,2.19-17.16,31.35,31.35,0,0,1,5.44-7.5,32,32,0,0,1,7.72-5.55,31.64,31.64,0,0,1,19.08-2.84,32.36,32.36,0,0,1,17.48,9,24.19,24.19,0,0,0,24.17,5.94C396.45,318.83,404.21,311.06,406.75,300.08Z"/><path class="cls-2" d="M398.79,168.46a25,25,0,0,1,6.36,5.77,30,30,0,0,1,4.21,7.91,31.05,31.05,0,0,1,1.45,9.15,30.71,30.71,0,0,1-13,24.87,32.26,32.26,0,0,1-18.71,6,24.26,24.26,0,0,0-21.28,12.91c-4.37,8-4.38,18.94,1.57,28.52a25.76,25.76,0,0,1-10.58-13.68,31.39,31.39,0,0,1-1.46-9.15,32,32,0,0,1,1.54-9.39,31.55,31.55,0,0,1,11.49-15.5,32.33,32.33,0,0,1,18.72-6A24.19,24.19,0,0,0,400.38,197C404.76,189,404.75,178,398.79,168.46Z"/><path class="cls-2" d="M300.09,81a25,25,0,0,1,8.57-.41,29.45,29.45,0,0,1,8.57,2.62,31.11,31.11,0,0,1,7.5,5.43,32.23,32.23,0,0,1,5.54,7.73,31.5,31.5,0,0,1,2.85,19.07,32.28,32.28,0,0,1-9,17.47,24.25,24.25,0,0,0-5.92,24.17c2.56,8.74,10.3,16.49,21.28,19A25.63,25.63,0,0,1,322.33,174a31,31,0,0,1-7.5-5.43,32.07,32.07,0,0,1-5.55-7.73,31.62,31.62,0,0,1-2.84-19.08,32.36,32.36,0,0,1,9-17.47,24.2,24.2,0,0,0,5.94-24.18C318.83,91.31,311.06,83.56,300.09,81Z"/></g></g></svg>