<svg xmlns="http://www.w3.org/2000/svg" viewBox="0 0 418.08 418.08"><defs><style>.cls-1{fill:none;}.cls-2{fill:#383836;}</style></defs><title>B_2_pittura</title><g id="Livello_2" data-name="Livello 2"><g id="Livello_2-2" data-name="Livello 2"><circle class="cls-1" cx="209.04" cy="209.04" r="209.04"/><path class="cls-2" d="M133.62,54.14a25,25,0,0,1,5.77-6.37,29.65,29.65,0,0,1,7.91-4.2,31.06,31.06,0,0,1,9.15-1.46,32.25,32.25,0,0,1,9.38,1.54,31.46,31.46,0,0,1,15.49,11.48,32.32,32.32,0,0,1,6,18.71,24.22,24.22,0,0,0,12.9,21.27c8,4.38,18.94,4.38,28.52-1.57a25.69,25.69,0,0,1-13.68,10.59,31.05,31.05,0,0,1-9.15,1.45,31.93,31.93,0,0,1-9.39-1.54A31.59,31.59,0,0,1,181,92.56a32.36,32.36,0,0,1-6-18.72,24.21,24.21,0,0,0-12.9-21.29C154.15,48.17,143.18,48.17,133.62,54.14Z"/><path class="cls-2" d="M46.17,152.84a25.08,25.08,0,0,1-.41-8.58,29.45,29.45,0,0,1,2.62-8.57,31.06,31.06,0,0,1,5.43-7.49,30.71,30.71,0,0,1,26.8-8.39,32.28,32.28,0,0,1,17.47,9,24.25,24.25,0,0,0,24.17,5.92c8.74-2.56,16.49-10.31,19.05-21.28a25.64,25.64,0,0,1-2.19,17.16,31,31,0,0,1-5.43,7.49,31.8,31.8,0,0,1-7.73,5.55,31.47,31.47,0,0,1-19.08,2.84,32.3,32.3,0,0,1-17.47-9,24.22,24.22,0,0,0-24.18-5.93C56.47,134.1,48.72,141.86,46.17,152.84Z"/><path class="cls-2" d="M54.14,284.47a25.38,25.38,0,0,1-6.37-5.77,29.86,29.86,0,0,1-4.2-7.92,31,31,0,0,1-1.46-9.14,32.25,32.25,0,0,1,1.54-9.38,31.53,31.53,0,0,1,11.48-15.5,32.31,32.31,0,0,1,18.71-6,24.22,24.22,0,0,0,21.27-12.9c4.38-8,4.38-19-1.57-28.52A25.65,25.65,0,0,1,104.13,203a31.05,31.05,0,0,1,1.45,9.15,31.92,31.92,0,0,1-1.54,9.38,31.55,31.55,0,0,1-11.48,15.5,32.29,32.29,0,0,1-18.72,6,24.21,24.21,0,0,0-21.29,12.9C48.17,263.93,48.17,274.91,54.14,284.47Z"/><path class="cls-2" d="M152.84,371.91a25.07,25.07,0,0,1-8.58.42,29.48,29.48,0,0,1-8.57-2.63,30.79,30.79,0,0,1-7.49-5.43,30.66,30.66,0,0,1-8.39-26.79,32.31,32.31,0,0,1,9-17.48,24.25,24.25,0,0,0,5.92-24.17c-2.56-8.73-10.31-16.49-21.28-19.05A25.64,25.64,0,0,1,130.6,279a31.3,31.3,0,0,1,7.49,5.44,30.67,30.67,0,0,1,8.39,26.8,32.29,32.29,0,0,1-9,17.48,24.2,24.2,0,0,0-5.93,24.17C134.1,361.61,141.86,369.37,152.84,371.91Z"/><path class="cls-2" d="M284.47,364a25.17,25.17,0,0,1-5.77,6.36,29.86,29.86,0,0,1-7.92,4.2,30.67,30.67,0,0,1-9.14,1.46,30.73,30.73,0,0,1-24.88-13,32.34,32.34,0,0,1-6-18.71A24.23,24.23,0,0,0,217.86,323c-8-4.37-19-4.38-28.52,1.57A25.68,25.68,0,0,1,203,314a31.39,31.39,0,0,1,9.15-1.46,31.92,31.92,0,0,1,9.38,1.54,31.51,31.51,0,0,1,15.5,11.49,32.26,32.26,0,0,1,6,18.72,24.21,24.21,0,0,0,12.9,21.29C263.93,369.92,274.91,369.91,284.47,364Z"/><path class="cls-2" d="M371.91,265.24a25.09,25.09,0,0,1,.42,8.58,29.48,29.48,0,0,1-2.63,8.57,31,31,0,0,1-5.43,7.5,32,32,0,0,1-7.72,5.54,31.45,31.45,0,0,1-19.07,2.84,32.26,32.26,0,0,1-17.48-9,24.25,24.25,0,0,0-24.17-5.92c-8.73,2.55-16.49,10.3-19.05,21.28A25.63,25.63,0,0,1,279,287.49a31.35,31.35,0,0,1,5.44-7.5,32,32,0,0,1,7.72-5.55,31.63,31.63,0,0,1,19.08-2.84,32.36,32.36,0,0,1,17.48,9,24.21,24.21,0,0,0,24.17,5.94C361.61,284,369.37,276.22,371.91,265.24Z"/><path class="cls-2" d="M364,133.62a25,25,0,0,1,6.36,5.77,29.65,29.65,0,0,1,4.2,7.91,30.73,30.73,0,0,1,1.46,9.15,30.71,30.71,0,0,1-13,24.87,32.26,32.26,0,0,1-18.71,6A24.26,24.26,0,0,0,323,200.23c-4.37,8-4.38,18.94,1.57,28.52A25.76,25.76,0,0,1,314,215.07a31.39,31.39,0,0,1-1.46-9.15,31.93,31.93,0,0,1,1.54-9.39A31.55,31.55,0,0,1,325.53,181a32.33,32.33,0,0,1,18.72-6,24.21,24.21,0,0,0,21.29-12.9C369.92,154.15,369.91,143.18,364,133.62Z"/><path class="cls-2" d="M265.24,46.17a25.09,25.09,0,0,1,8.58-.41,29.45,29.45,0,0,1,8.57,2.62,31.11,31.11,0,0,1,7.5,5.43,32,32,0,0,1,5.54,7.73,31.43,31.43,0,0,1,2.84,19.07,32.2,32.2,0,0,1-9,17.47,24.25,24.25,0,0,0-5.92,24.17c2.55,8.74,10.3,16.49,21.28,19.05a25.63,25.63,0,0,1-17.16-2.19,31,31,0,0,1-7.5-5.43,32.07,32.07,0,0,1-5.55-7.73,31.62,31.62,0,0,1-2.84-19.08,32.36,32.36,0,0,1,9-17.47,24.23,24.23,0,0,0,5.94-24.18C284,56.47,276.22,48.72,265.24,46.17Z"/></g></g></svg>