<svg xmlns="http://www.w3.org/2000/svg" viewBox="0 0 418.08 418.08"><defs><style>.cls-1{fill:none;}.cls-2{fill:#383836;}</style></defs><title>B_1_sartoria</title><g id="Livello_2" data-name="Livello 2"><g id="Livello_2-2" data-name="Livello 2"><circle class="cls-1" cx="209.04" cy="209.04" r="209.04"/><path class="cls-2" d="M138,58.47l-8.69-8.68a34,34,0,0,1,8.45-6.18l5.64,10.91A22,22,0,0,0,138,58.47Z"/><path class="cls-2" d="M209.05,107.84a34.21,34.21,0,0,1-15.61-3.78l5.64-10.92a21.93,21.93,0,0,0,14.07,2l2.31,12.07A34.54,34.54,0,0,1,209.05,107.84Zm-23.48-9.41-.57-.55a33.73,33.73,0,0,1-9.62-19.22l12.17-1.74a21.47,21.47,0,0,0,6.14,12.27l.36.35Zm-10.75-27.7a21.48,21.48,0,0,0-6.14-12.25l-.38-.37,8.49-8.89.56.55A33.75,33.75,0,0,1,187,69ZM163.27,54.52a22,22,0,0,0-14.07-2l-2.31-12.06a34.31,34.31,0,0,1,22,3.16Z"/><path class="cls-2" d="M224.64,104.06,219,93.14a21.32,21.32,0,0,0,5.4-4l8.69,8.69A34,34,0,0,1,224.64,104.06Z"/><path class="cls-2" d="M52.32,152.83H40a33.8,33.8,0,0,1,1.61-10.34l11.7,3.73A21.73,21.73,0,0,0,52.32,152.83Z"/><path class="cls-2" d="M113.43,147.44a33.67,33.67,0,0,1-20.38-6.8l7.37-9.82a21.55,21.55,0,0,0,13,4.33H114l.27,12.29h-.8Zm10.35-1.61-3.73-11.7a21.94,21.94,0,0,0,11.38-8.52l10.16,6.9A34.2,34.2,0,0,1,123.78,145.83ZM56,140.67l-10.17-6.9a34.21,34.21,0,0,1,17.81-13.33l3.73,11.71A21.77,21.77,0,0,0,56,140.67Zm31-5.23a21.54,21.54,0,0,0-13-4.32H73.5l-.26-12.28H74a33.79,33.79,0,0,1,20.44,6.77Z"/><path class="cls-2" d="M145.84,123.77,134.14,120a21.68,21.68,0,0,0,1-6.61h12.29A33.75,33.75,0,0,1,145.84,123.77Z"/><path class="cls-2" d="M49.79,288.8a34.09,34.09,0,0,1-6.18-8.44l10.92-5.64a21.68,21.68,0,0,0,3.95,5.4Z"/><path class="cls-2" d="M40.44,271.19a34.67,34.67,0,0,1-.61-6.43,34.21,34.21,0,0,1,3.77-15.58l10.92,5.63a21.86,21.86,0,0,0-2,14.07Zm17.67-21.41-8.88-8.49c.19-.21.39-.41.6-.61A33.64,33.64,0,0,1,69,231.1l1.75,12.16a21.54,21.54,0,0,0-12.26,6.14Zm20.55-7.08-1.73-12.17a21.53,21.53,0,0,0,12.27-6.14l.37-.38,8.85,8.52-.54.55A33.79,33.79,0,0,1,78.66,242.7Zm25.4-18.06L93.15,219a21.92,21.92,0,0,0,2.41-10,21.58,21.58,0,0,0-.39-4.1l12.07-2.31a34.44,34.44,0,0,1,.6,6.41A34.09,34.09,0,0,1,104.06,224.64Z"/><path class="cls-2" d="M93.15,199.07a22.19,22.19,0,0,0-4-5.4L97.88,185a33.88,33.88,0,0,1,6.19,8.44Z"/><path class="cls-2" d="M152.84,378.05a33.75,33.75,0,0,1-10.34-1.61l3.73-11.7a21.68,21.68,0,0,0,6.61,1Z"/><path class="cls-2" d="M133.78,372.2a34.13,34.13,0,0,1-13.34-17.8l11.71-3.74A21.83,21.83,0,0,0,140.67,362Zm-14.94-27.36v-.77a33.75,33.75,0,0,1,6.78-20.4l9.83,7.37a21.56,21.56,0,0,0-4.32,13v.54ZM140.65,325l-9.83-7.37a21.53,21.53,0,0,0,4.34-13v-.51l12.28-.28v.79A33.71,33.71,0,0,1,140.65,325Zm-6.52-27a21.87,21.87,0,0,0-8.51-11.38l6.9-10.16a34.2,34.2,0,0,1,13.32,17.81Z"/><path class="cls-2" d="M120,283.94a21.57,21.57,0,0,0-6.6-1V270.63a33.86,33.86,0,0,1,10.35,1.61Z"/><path class="cls-2" d="M280.36,374.47l-5.63-10.92a21.63,21.63,0,0,0,5.39-3.95l8.69,8.68A34.11,34.11,0,0,1,280.36,374.47Z"/><path class="cls-2" d="M264.76,378.25a34.15,34.15,0,0,1-15.58-3.78l5.63-10.92a22,22,0,0,0,14.07,2l2.32,12.06A34,34,0,0,1,264.76,378.25Zm-23.46-9.4-.57-.55a33.78,33.78,0,0,1-9.63-19.21l12.16-1.75a21.55,21.55,0,0,0,6.15,12.26l.38.37Zm-10.76-27.7a21.57,21.57,0,0,0-6.14-12.27l-.36-.35,8.48-8.89.56.55a33.7,33.7,0,0,1,9.62,19.23ZM219,324.93a22,22,0,0,0-14.07-2l-2.3-12.07a34.46,34.46,0,0,1,22,3.17Z"/><path class="cls-2" d="M193.68,328.88,185,320.19a34.38,34.38,0,0,1,8.46-6.18l5.63,10.92A21.68,21.68,0,0,0,193.68,328.88Z"/><path class="cls-2" d="M376.45,275.59l-11.71-3.74a21.69,21.69,0,0,0,1-6.61h12.28A34.16,34.16,0,0,1,376.45,275.59Z"/><path class="cls-2" d="M344.11,299.24a33.81,33.81,0,0,1-20.44-6.77l7.37-9.84a21.53,21.53,0,0,0,13,4.33h.53l.27,12.28Zm10.3-1.61-3.74-11.7A21.87,21.87,0,0,0,362,277.41l10.17,6.89A34.14,34.14,0,0,1,354.41,297.63Zm-67.75-5.17-10.17-6.9a34.2,34.2,0,0,1,17.81-13.32l3.74,11.7A21.86,21.86,0,0,0,286.66,292.46Zm31-5.2a21.55,21.55,0,0,0-13-4.34h-.51l-.27-12.28h.78a33.74,33.74,0,0,1,20.4,6.79Z"/><path class="cls-2" d="M282.92,304.64H270.64a34,34,0,0,1,1.6-10.34L284,298A21.69,21.69,0,0,0,282.92,304.64Z"/><path class="cls-2" d="M363.56,143.36a21.83,21.83,0,0,0-4-5.41l8.69-8.68a33.83,33.83,0,0,1,6.18,8.45Z"/><path class="cls-2" d="M310.85,215.45a33.55,33.55,0,0,1-.61-6.41,34.17,34.17,0,0,1,3.78-15.6l10.92,5.64a21.75,21.75,0,0,0-2.41,10,22.42,22.42,0,0,0,.38,4.1Zm17.65-21.37-8.82-8.55.52-.54a33.72,33.72,0,0,1,19.22-9.61l1.74,12.16a21.53,21.53,0,0,0-12.27,6.14ZM349.09,187l-1.74-12.16a21.42,21.42,0,0,0,12.25-6.14l.37-.38,8.89,8.49-.55.56A33.69,33.69,0,0,1,349.09,187Zm25.39-18.07-10.92-5.64a21.62,21.62,0,0,0,2-14.06l12.07-2.32a34.14,34.14,0,0,1-3.16,22Z"/><path class="cls-2" d="M320.2,233.09a34.33,34.33,0,0,1-6.18-8.45L324.94,219a21.5,21.5,0,0,0,3.95,5.4Z"/><path class="cls-2" d="M271.86,53.34a21.75,21.75,0,0,0-6.62-1V40a34.16,34.16,0,0,1,10.35,1.6Z"/><path class="cls-2" d="M285.56,141.58a34.16,34.16,0,0,1-13.32-17.81L284,120a21.84,21.84,0,0,0,8.51,11.38Zm-14.91-27.36v-.79A33.75,33.75,0,0,1,277.43,93l9.83,7.37a21.56,21.56,0,0,0-4.33,13V114ZM292.47,94.4,282.64,87A21.52,21.52,0,0,0,287,74v-.54l12.28-.26V74A33.68,33.68,0,0,1,292.47,94.4Zm-6.53-27A21.8,21.8,0,0,0,277.41,56l6.9-10.17a34.16,34.16,0,0,1,13.33,17.8Z"/><path class="cls-2" d="M304.65,147.44a34.16,34.16,0,0,1-10.35-1.6L298,134.13a21.63,21.63,0,0,0,6.61,1Z"/></g></g></svg>