<svg xmlns="http://www.w3.org/2000/svg" viewBox="0 0 418.08 418.08"><defs><style>.cls-1{fill:none;}.cls-2{fill:#383836;}</style></defs><title>B_3_scultura</title><g id="Livello_2" data-name="Livello 2"><g id="Livello_2-2" data-name="Livello 2"><circle class="cls-1" cx="209.04" cy="209.04" r="209.04"/><path class="cls-2" d="M254.59,62.82A27.86,27.86,0,0,1,207,43.11a27.87,27.87,0,0,0-47.57-19.7L128.88,54.13a27.86,27.86,0,0,1,47.56,19.7A27.87,27.87,0,0,0,224,93.53Z"/><path class="cls-2" d="M137.85,73.43A27.86,27.86,0,0,1,90.29,93.14a27.87,27.87,0,0,0-47.57,19.7l.09,43.35a27.87,27.87,0,0,1,47.57-19.71,27.86,27.86,0,0,0,47.56-19.7Z"/><path class="cls-2" d="M62.82,163.49a27.87,27.87,0,0,1-19.71,47.57,27.86,27.86,0,0,0-19.7,47.56l30.72,30.59a27.87,27.87,0,0,1,19.7-47.57,27.86,27.86,0,0,0,19.7-47.56Z"/><path class="cls-2" d="M73.43,280.23A27.87,27.87,0,0,1,93.14,327.8a27.86,27.86,0,0,0,19.7,47.56l43.35-.09a27.87,27.87,0,0,1-19.71-47.57,27.86,27.86,0,0,0-19.7-47.56Z"/><path class="cls-2" d="M163.49,355.27A27.87,27.87,0,0,1,211.06,375a27.86,27.86,0,0,0,47.56,19.7L289.21,364a27.87,27.87,0,0,1-47.57-19.7,27.86,27.86,0,0,0-47.56-19.71Z"/><path class="cls-2" d="M280.23,344.65A27.87,27.87,0,0,1,327.8,325a27.86,27.86,0,0,0,47.56-19.7l-.09-43.35a27.87,27.87,0,0,1-47.57,19.7,27.86,27.86,0,0,0-47.56,19.7Z"/><path class="cls-2" d="M355.27,254.59A27.86,27.86,0,0,1,375,207a27.87,27.87,0,0,0,19.7-47.57L364,128.88a27.86,27.86,0,0,1-19.7,47.56A27.87,27.87,0,0,0,324.55,224Z"/><path class="cls-2" d="M344.65,137.85A27.86,27.86,0,0,1,325,90.29a27.87,27.87,0,0,0-19.7-47.57l-43.35.09a27.87,27.87,0,0,1,19.7,47.57,27.86,27.86,0,0,0,19.7,47.56Z"/></g></g></svg>