<svg xmlns="http://www.w3.org/2000/svg" viewBox="0 0 418.08 418.08"><defs><style>.cls-1{fill:none;}.cls-2{fill:#383836;}</style></defs><title>C_3_tessuto e cuoio</title><g id="Livello_2" data-name="Livello 2"><g id="Livello_2-2" data-name="Livello 2"><circle class="cls-1" cx="209.04" cy="209.04" r="209.04"/><path class="cls-2" d="M220.22,275.1a6.14,6.14,0,0,1-1.11-12.18c.73-.14,1.45-.29,2.17-.45a6.14,6.14,0,1,1,2.75,12c-.89.21-1.79.39-2.69.56A6.14,6.14,0,0,1,220.22,275.1Zm-24.67-.47a6.39,6.39,0,0,1-1.36-.16c-.89-.2-1.78-.42-2.66-.66a6.14,6.14,0,1,1,3.2-11.86l2.16.54a6.14,6.14,0,0,1-1.34,12.14Zm49.55-10.31a6.14,6.14,0,0,1-3.65-11.09c.61-.44,1.2-.9,1.79-1.37a6.14,6.14,0,0,1,7.66,9.61q-1.07.84-2.16,1.65A6.08,6.08,0,0,1,245.1,264.32Zm-74-1.44a6.16,6.16,0,0,1-3.82-1.33c-.71-.57-1.42-1.16-2.11-1.76a6.14,6.14,0,1,1,8.05-9.28c.56.48,1.13,1,1.71,1.42a6.14,6.14,0,0,1-3.83,10.95Zm91.74-19a6,6,0,0,1-2.88-.73,6.14,6.14,0,0,1-2.53-8.31c.35-.66.69-1.32,1-2a6.14,6.14,0,1,1,11.07,5.33c-.4.83-.81,1.64-1.24,2.44A6.13,6.13,0,0,1,262.84,243.83Zm-108.67-2.11a6.16,6.16,0,0,1-5.54-3.46c-.39-.82-.78-1.65-1.14-2.49a6.14,6.14,0,1,1,11.27-4.89q.45,1,.93,2a6.14,6.14,0,0,1-2.85,8.21A6.07,6.07,0,0,1,154.17,241.72ZM270,217.66h-.26a6.15,6.15,0,0,1-5.89-6.39c0-.74.05-1.48.05-2.23v-.26a6.14,6.14,0,1,1,12.28,0V209c0,1,0,1.91-.06,2.81A6.15,6.15,0,0,1,270,217.66Zm-121.86-2.42a6.09,6.09,0,0,1-6.14-6.08V209c0-.87,0-1.73.05-2.59a6.14,6.14,0,0,1,12.28.47c0,.7,0,1.41,0,2.12A6.2,6.2,0,0,1,148.09,215.24Zm116.82-24.47a6.14,6.14,0,0,1-5.63-3.69c-.3-.68-.61-1.36-.94-2a6.15,6.15,0,0,1,11.05-5.38c.4.82.78,1.65,1.15,2.48a6.16,6.16,0,0,1-5.63,8.61Zm-110.86-1.91a6.16,6.16,0,0,1-5.54-8.8c.4-.83.81-1.65,1.24-2.45a6.14,6.14,0,1,1,10.85,5.76c-.35.66-.69,1.32-1,2A6.14,6.14,0,0,1,154.05,188.86ZM248.79,169a6.08,6.08,0,0,1-4-1.49c-.57-.48-1.15-1-1.73-1.42a6.14,6.14,0,1,1,7.63-9.63c.72.57,1.42,1.15,2.11,1.74a6.14,6.14,0,0,1-4,10.8Zm-77.87-1.35a6.15,6.15,0,0,1-3.85-10.94c.71-.57,1.43-1.12,2.16-1.66a6.14,6.14,0,0,1,7.3,9.88c-.6.44-1.19.9-1.77,1.36A6.06,6.06,0,0,1,170.92,167.62Zm53.91-11.33a6.2,6.2,0,0,1-1.59-.21c-.72-.19-1.45-.37-2.18-.54a6.14,6.14,0,1,1,2.7-12c.89.2,1.78.41,2.66.65a6.15,6.15,0,0,1-1.59,12.08Zm-29.53-.51a6.14,6.14,0,0,1-1.37-12.13c.88-.21,1.77-.39,2.67-.56a6.14,6.14,0,1,1,2.27,12.07c-.74.14-1.47.3-2.19.46A6,6,0,0,1,195.3,155.78Z"/></g></g></svg>