<svg xmlns="http://www.w3.org/2000/svg" viewBox="0 0 487.77 487.77"><defs><style>.cls-1{fill:none;}.cls-2{fill:#383836;}</style></defs><title>carta</title><g id="Livello_2" data-name="Livello 2"><g id="Livello_2-2" data-name="Livello 2"><circle class="cls-1" cx="243.88" cy="243.88" r="243.88"/><path class="cls-2" d="M278.38,159.34l-6.92-62.48,56.18,23.27ZM286,116.17l2.18,19.69,15.53-12.36Z"/><path class="cls-2" d="M208.5,159.71l-49.07-39.29L215.6,97.16Zm-25.17-35.89L198.8,136.2,201,116.48Z"/><path class="cls-2" d="M96.86,216.3l23.27-56.17,39.21,49.25Zm26.64-32.2-7.33,17.7,19.69-2.18Z"/><path class="cls-2" d="M120.42,328.34,97.16,272.17l62.54,7.1Zm-3.93-41.61,7.33,17.7L136.2,289Z"/><path class="cls-2" d="M216.31,390.9l-56.18-23.27,49.25-39.2Zm-32.22-26.64,17.71,7.34-2.18-19.7Z"/><path class="cls-2" d="M272.17,390.61l7.1-62.55,49.07,39.28ZM289,351.56l-2.24,19.72,17.7-7.34Z"/><path class="cls-2" d="M367.63,327.63l-39.2-49.25,62.47-6.92ZM351.9,288.14l12.36,15.53L371.6,286Z"/><path class="cls-2" d="M390.61,215.6l-62.55-7.11,39.28-49.07Zm-39.05-16.8L371.28,201l-7.34-17.71Z"/></g></g></svg>