<svg xmlns="http://www.w3.org/2000/svg" viewBox="0 0 487.77 487.77"><defs><style>.cls-1{fill:none;}.cls-2{fill:#383836;}</style></defs><title>miscelatura</title><g id="Livello_2" data-name="Livello 2"><g id="Livello_2-2" data-name="Livello 2"><circle class="cls-1" cx="243.88" cy="243.88" r="243.88"/><path class="cls-2" d="M165,86.43a36,36,0,0,1,8.11-5.54A34.88,34.88,0,0,1,182.38,78a35.42,35.42,0,0,1,9.59-.09,35,35,0,0,1,9.11,2.66,31.93,31.93,0,0,1,13.77,12.25,30.83,30.83,0,0,1,4.52,17.41,24.92,24.92,0,0,0,3.5,14,25.89,25.89,0,0,0,11,10,28.82,28.82,0,0,0,7.37,2.23,29.25,29.25,0,0,0,7.82,0,28.75,28.75,0,0,0,7.58-2.31,30.27,30.27,0,0,0,6.68-4.48,30.56,30.56,0,0,1-6.32,5.15,30,30,0,0,1-7.64,3.13,28.56,28.56,0,0,1-16.65-.91,29.71,29.71,0,0,1-13.68-10.28,30.22,30.22,0,0,1-5.78-16.57A24.09,24.09,0,0,0,208.54,97,23.61,23.61,0,0,0,197.59,89,25.28,25.28,0,0,0,191,87.7a25.62,25.62,0,0,0-6.56.7,24,24,0,0,0-6,2.53A24.65,24.65,0,0,0,173.6,95l-.11.12a6.08,6.08,0,1,1-8.86-8.34C164.75,86.67,164.89,86.54,165,86.43Z"/><path class="cls-2" d="M76.77,188.31a36.28,36.28,0,0,1,1.82-9.65,35.28,35.28,0,0,1,4.49-8.61,35.7,35.7,0,0,1,6.71-6.85,35.3,35.3,0,0,1,8.32-4.55,32,32,0,0,1,18.4-1.08A30.93,30.93,0,0,1,132,166.69a24.79,24.79,0,0,0,12.39,7.45,25.9,25.9,0,0,0,14.9-.74,28.5,28.5,0,0,0,6.79-3.63,26.79,26.79,0,0,0,9.25-12.53,30.33,30.33,0,0,0,1.55-7.89,30.47,30.47,0,0,1-.83,8.11,29.89,29.89,0,0,1-3.19,7.62,28.71,28.71,0,0,1-12.41,11.13,29.73,29.73,0,0,1-16.94,2.4A30.23,30.23,0,0,1,127.73,171,24,24,0,0,0,115,165a23.62,23.62,0,0,0-13.44,2,22.61,22.61,0,0,0-9.69,8.9,24.27,24.27,0,0,0-2.42,6,24.68,24.68,0,0,0-.57,6.34v.17a6.08,6.08,0,1,1-12.16.36C76.76,188.67,76.77,188.48,76.77,188.31Z"/><path class="cls-2" d="M86.43,322.75a35.9,35.9,0,0,1-5.54-8.1A34.83,34.83,0,0,1,78,305.38a35.42,35.42,0,0,1-.09-9.59,34.78,34.78,0,0,1,2.66-9.1,32,32,0,0,1,12.25-13.78,30.91,30.91,0,0,1,17.41-4.52,24.91,24.91,0,0,0,14-3.49,25.92,25.92,0,0,0,10-11.06,28.58,28.58,0,0,0,2.23-7.37,29.25,29.25,0,0,0,0-7.82,28.86,28.86,0,0,0-2.31-7.58,30,30,0,0,0-4.48-6.67,30.56,30.56,0,0,1,5.15,6.32,29.9,29.9,0,0,1,3.13,7.64,28.53,28.53,0,0,1-.91,16.64,29.66,29.66,0,0,1-10.28,13.68,30.23,30.23,0,0,1-16.57,5.79A24,24,0,0,0,97,279.22,23.66,23.66,0,0,0,89,290.17a22.62,22.62,0,0,0-.56,13.15,24.19,24.19,0,0,0,2.53,6A24.59,24.59,0,0,0,95,314.16l.12.12a6.08,6.08,0,1,1-8.34,8.85A4.4,4.4,0,0,1,86.43,322.75Z"/><path class="cls-2" d="M188.31,411a36.27,36.27,0,0,1-9.65-1.81A32.83,32.83,0,0,1,163.2,398a34.91,34.91,0,0,1-4.55-8.32,32,32,0,0,1-1.08-18.4,30.9,30.9,0,0,1,9.12-15.51,24.82,24.82,0,0,0,7.45-12.4,25.87,25.87,0,0,0-.74-14.89,28.31,28.31,0,0,0-3.63-6.79,29.55,29.55,0,0,0-5.53-5.53,29.18,29.18,0,0,0-7-3.72,29.92,29.92,0,0,0-7.89-1.55,27.85,27.85,0,0,1,15.73,4,28.66,28.66,0,0,1,11.13,12.42,29.73,29.73,0,0,1,2.4,16.94A30.16,30.16,0,0,1,171,360a24.1,24.1,0,0,0-6,12.7,23.59,23.59,0,0,0,2,13.43,22.46,22.46,0,0,0,8.9,9.69,23.92,23.92,0,0,0,6,2.43,24.67,24.67,0,0,0,6.34.56h.17a6.08,6.08,0,1,1,.36,12.16Z"/><path class="cls-2" d="M322.75,401.34a36.23,36.23,0,0,1-8.1,5.54,33,33,0,0,1-18.86,3,34.79,34.79,0,0,1-9.1-2.67A31.92,31.92,0,0,1,272.91,395a31,31,0,0,1-4.52-17.42,24.9,24.9,0,0,0-3.49-14,25.92,25.92,0,0,0-11.06-10,28.6,28.6,0,0,0-7.37-2.24,26.82,26.82,0,0,0-15.4,2.32,30.33,30.33,0,0,0-6.67,4.48,28.43,28.43,0,0,1,30.6-7.37A29.66,29.66,0,0,1,268.68,361a30.26,30.26,0,0,1,5.79,16.57,24,24,0,0,0,4.75,13.19,23.53,23.53,0,0,0,10.95,8.05,25.37,25.37,0,0,0,6.59,1.27,25.72,25.72,0,0,0,6.56-.7,24.58,24.58,0,0,0,6-2.53,24.93,24.93,0,0,0,4.88-4.09l.12-.12a6.08,6.08,0,1,1,8.85,8.34C323,401.1,322.88,401.22,322.75,401.34Z"/><path class="cls-2" d="M411,299.45a36.27,36.27,0,0,1-1.81,9.65A32.83,32.83,0,0,1,398,324.56a34.22,34.22,0,0,1-8.32,4.55,32,32,0,0,1-18.4,1.09,31,31,0,0,1-15.51-9.12,24.82,24.82,0,0,0-12.4-7.45,25.87,25.87,0,0,0-14.89.73,26.56,26.56,0,0,0-12.32,9.17,29.12,29.12,0,0,0-3.72,7,30.08,30.08,0,0,0-1.55,7.89,27.85,27.85,0,0,1,4-15.73,31.28,31.28,0,0,1,5.34-6.44,31,31,0,0,1,7.08-4.68,29.65,29.65,0,0,1,16.94-2.4,30.15,30.15,0,0,1,15.8,7.62,24.11,24.11,0,0,0,12.7,6,23.51,23.51,0,0,0,13.43-2.06,22.52,22.52,0,0,0,9.69-8.89,24.07,24.07,0,0,0,2.43-6,24.71,24.71,0,0,0,.56-6.35v-.17a6.08,6.08,0,1,1,12.16-.36C411,299.1,411,299.28,411,299.45Z"/><path class="cls-2" d="M401.34,165a36.29,36.29,0,0,1,5.54,8.11,32.59,32.59,0,0,1,.34,28A32,32,0,0,1,395,214.85a30.88,30.88,0,0,1-17.42,4.52,24.91,24.91,0,0,0-14,3.5,25.89,25.89,0,0,0-10,11,28.84,28.84,0,0,0-2.24,7.37,26.82,26.82,0,0,0,2.32,15.4,30.63,30.63,0,0,0,4.48,6.68,28.44,28.44,0,0,1-7.37-30.61A29.71,29.71,0,0,1,361,219.08a30.25,30.25,0,0,1,16.57-5.78,24.09,24.09,0,0,0,13.19-4.76,23.54,23.54,0,0,0,8.05-10.95,22.47,22.47,0,0,0,.57-13.14,24.41,24.41,0,0,0-2.53-6,25,25,0,0,0-4.09-4.89l-.12-.11a6.08,6.08,0,0,1,8.34-8.86C401.1,164.75,401.22,164.89,401.34,165Z"/><path class="cls-2" d="M299.45,76.78a35.87,35.87,0,0,1,9.65,1.81,34.93,34.93,0,0,1,8.61,4.49,35.42,35.42,0,0,1,6.85,6.71,34.59,34.59,0,0,1,4.55,8.32,32,32,0,0,1,1.09,18.4A31,31,0,0,1,321.08,132a24.79,24.79,0,0,0-7.45,12.39,25.9,25.9,0,0,0,.73,14.9,28.9,28.9,0,0,0,3.64,6.79,29.2,29.2,0,0,0,5.53,5.52,29.51,29.51,0,0,0,7,3.73,30.49,30.49,0,0,0,7.89,1.55,30.51,30.51,0,0,1-8.11-.83,30.2,30.2,0,0,1-7.62-3.19,28.77,28.77,0,0,1-11.12-12.41,29.65,29.65,0,0,1-2.4-16.94,30.22,30.22,0,0,1,7.62-15.81,24,24,0,0,0,6-12.69,23.62,23.62,0,0,0-2.05-13.44,25.2,25.2,0,0,0-3.77-5.54,24.83,24.83,0,0,0-5.13-4.15,24.43,24.43,0,0,0-6-2.42,24.72,24.72,0,0,0-6.35-.57h-.17a6.08,6.08,0,0,1-.36-12.16A4.64,4.64,0,0,1,299.45,76.78Z"/></g></g></svg>