<svg xmlns="http://www.w3.org/2000/svg" viewBox="0 0 487.77 487.77"><defs><style>.cls-1{fill:none;}.cls-2{fill:#383836;}</style></defs><title>sartoria</title><g id="Livello_2" data-name="Livello 2"><g id="Livello_2-2" data-name="Livello 2"><circle class="cls-1" cx="243.88" cy="243.88" r="243.88"/><path class="cls-2" d="M172.8,93.31l-8.69-8.68a34,34,0,0,1,8.45-6.18l5.64,10.91A22,22,0,0,0,172.8,93.31Z"/><path class="cls-2" d="M243.89,142.68a34.21,34.21,0,0,1-15.61-3.78L233.92,128A21.93,21.93,0,0,0,248,130l2.31,12.07A34.54,34.54,0,0,1,243.89,142.68Zm-23.48-9.41-.57-.55a33.73,33.73,0,0,1-9.62-19.22l12.17-1.74A21.47,21.47,0,0,0,228.53,124l.36.36Zm-10.75-27.7a21.48,21.48,0,0,0-6.14-12.25l-.38-.37,8.49-8.89.56.55a33.75,33.75,0,0,1,9.63,19.21ZM198.11,89.36a22,22,0,0,0-14.07-2l-2.31-12.07a34.3,34.3,0,0,1,22,3.16Z"/><path class="cls-2" d="M259.48,138.9,253.84,128a21.32,21.32,0,0,0,5.4-4l8.69,8.69A34,34,0,0,1,259.48,138.9Z"/><path class="cls-2" d="M87.16,187.67H74.87a33.8,33.8,0,0,1,1.61-10.34l11.7,3.73A21.73,21.73,0,0,0,87.16,187.67Z"/><path class="cls-2" d="M148.27,182.28a33.67,33.67,0,0,1-20.38-6.8l7.37-9.82a21.55,21.55,0,0,0,13,4.33h.53l.27,12.28h-.8Zm10.35-1.61L154.89,169a21.88,21.88,0,0,0,11.38-8.52l10.16,6.91A34.23,34.23,0,0,1,158.62,180.67Zm-67.74-5.16-10.17-6.9a34.21,34.21,0,0,1,17.81-13.33L102.25,167A21.77,21.77,0,0,0,90.88,175.51Zm31-5.23a21.54,21.54,0,0,0-13-4.32h-.54l-.26-12.28h.73a33.79,33.79,0,0,1,20.44,6.77Z"/><path class="cls-2" d="M180.68,158.62,169,154.88a21.68,21.68,0,0,0,1-6.61h12.29A33.86,33.86,0,0,1,180.68,158.62Z"/><path class="cls-2" d="M84.63,323.64a34.09,34.09,0,0,1-6.18-8.44l10.92-5.64a21.68,21.68,0,0,0,3.95,5.4Z"/><path class="cls-2" d="M75.28,306a34.59,34.59,0,0,1-.61-6.43A34.09,34.09,0,0,1,78.45,284l10.91,5.63a21.86,21.86,0,0,0-2,14.07ZM93,284.62l-8.88-8.49c.19-.21.39-.41.6-.61a33.64,33.64,0,0,1,19.16-9.58l1.75,12.16a21.54,21.54,0,0,0-12.26,6.14Zm20.55-7.08-1.73-12.16A21.61,21.61,0,0,0,124,259.23l.37-.38,8.86,8.52-.54.55A33.85,33.85,0,0,1,113.5,277.54Zm25.4-18.06L128,253.84a21.92,21.92,0,0,0,2.41-10,21.58,21.58,0,0,0-.39-4.1l12.07-2.31a34.45,34.45,0,0,1,.61,6.41A34.1,34.1,0,0,1,138.9,259.48Z"/><path class="cls-2" d="M128,233.91a21.93,21.93,0,0,0-3.95-5.4l8.69-8.68a34.09,34.09,0,0,1,6.18,8.44Z"/><path class="cls-2" d="M187.68,412.89a33.75,33.75,0,0,1-10.34-1.61l3.73-11.7a21.68,21.68,0,0,0,6.61,1Z"/><path class="cls-2" d="M168.62,407a34.15,34.15,0,0,1-13.34-17.79L167,385.5a21.8,21.8,0,0,0,8.52,11.37Zm-14.94-27.36v-.77a33.75,33.75,0,0,1,6.78-20.4l9.83,7.37a21.56,21.56,0,0,0-4.32,13v.54Zm21.81-19.81-9.83-7.37a21.53,21.53,0,0,0,4.34-13V339l12.28-.28v.79A33.71,33.71,0,0,1,175.49,359.87Zm-6.52-27a21.87,21.87,0,0,0-8.51-11.38l6.9-10.16a34.2,34.2,0,0,1,13.32,17.81Z"/><path class="cls-2" d="M154.88,318.78a21.57,21.57,0,0,0-6.6-1V305.47a33.86,33.86,0,0,1,10.35,1.61Z"/><path class="cls-2" d="M315.2,409.31l-5.63-10.92a21.63,21.63,0,0,0,5.39-3.95l8.69,8.69A34.33,34.33,0,0,1,315.2,409.31Z"/><path class="cls-2" d="M299.6,413.09A34.15,34.15,0,0,1,284,409.31l5.63-10.91a22.07,22.07,0,0,0,14.08,2L306,412.47A34,34,0,0,1,299.6,413.09Zm-23.46-9.4-.57-.55a33.78,33.78,0,0,1-9.63-19.21l12.17-1.75a21.48,21.48,0,0,0,6.14,12.26l.38.37ZM265.38,376a21.57,21.57,0,0,0-6.14-12.27l-.36-.35,8.48-8.89.56.55a33.7,33.7,0,0,1,9.62,19.23Zm-11.54-16.22a22,22,0,0,0-14.07-2l-2.3-12.07a34.46,34.46,0,0,1,22,3.17Z"/><path class="cls-2" d="M228.52,363.72,219.83,355a34.38,34.38,0,0,1,8.46-6.18l5.63,10.92A21.68,21.68,0,0,0,228.52,363.72Z"/><path class="cls-2" d="M411.29,310.43l-11.71-3.74a21.64,21.64,0,0,0,1-6.61h12.28A34.16,34.16,0,0,1,411.29,310.43Z"/><path class="cls-2" d="M379,334.08a33.81,33.81,0,0,1-20.44-6.77l7.37-9.84a21.55,21.55,0,0,0,13,4.33h.54l.26,12.28Zm10.3-1.61-3.74-11.7a21.87,21.87,0,0,0,11.37-8.52l10.17,6.89A34.14,34.14,0,0,1,389.25,332.47ZM321.5,327.3l-10.17-6.9a34.2,34.2,0,0,1,17.81-13.32l3.74,11.7A21.86,21.86,0,0,0,321.5,327.3Zm31-5.2a21.55,21.55,0,0,0-13-4.34H339l-.27-12.28h.78a33.74,33.74,0,0,1,20.4,6.79Z"/><path class="cls-2" d="M317.76,339.48H305.48a34,34,0,0,1,1.6-10.34l11.71,3.73A21.69,21.69,0,0,0,317.76,339.48Z"/><path class="cls-2" d="M398.4,178.2a21.83,21.83,0,0,0-4-5.41l8.69-8.68a33.83,33.83,0,0,1,6.18,8.45Z"/><path class="cls-2" d="M345.69,250.3a33.73,33.73,0,0,1-.61-6.42,34.17,34.17,0,0,1,3.78-15.6l10.92,5.64a21.77,21.77,0,0,0-2,14.06Zm17.65-21.38-8.82-8.55.52-.53a33.67,33.67,0,0,1,19.22-9.62L376,222.38a21.53,21.53,0,0,0-12.27,6.14Zm20.59-7.11-1.74-12.16a21.42,21.42,0,0,0,12.25-6.14l.37-.37,8.89,8.48-.55.56A33.69,33.69,0,0,1,383.93,221.81Zm25.39-18.07L398.4,198.1a21.62,21.62,0,0,0,2-14.06l12.07-2.32a34.14,34.14,0,0,1-3.16,22Z"/><path class="cls-2" d="M355,267.93a34.14,34.14,0,0,1-6.18-8.45l10.92-5.64a21.5,21.5,0,0,0,4,5.4Z"/><path class="cls-2" d="M306.7,88.18a21.75,21.75,0,0,0-6.62-1V74.87a34.16,34.16,0,0,1,10.35,1.6Z"/><path class="cls-2" d="M320.4,176.42a34.16,34.16,0,0,1-13.32-17.81l11.71-3.73a21.84,21.84,0,0,0,8.51,11.38Zm-14.91-27.36v-.79a33.75,33.75,0,0,1,6.79-20.39l9.83,7.37a21.58,21.58,0,0,0-4.33,13v.52Zm21.82-19.82-9.83-7.36a21.52,21.52,0,0,0,4.32-13v-.54l12.28-.26v.77A33.68,33.68,0,0,1,327.31,129.24Zm-6.53-27a21.8,21.8,0,0,0-8.53-11.37l6.9-10.17a34.2,34.2,0,0,1,13.33,17.8Z"/><path class="cls-2" d="M339.49,182.28a34.16,34.16,0,0,1-10.35-1.6L332.88,169a21.63,21.63,0,0,0,6.61,1Z"/></g></g></svg>