<svg xmlns="http://www.w3.org/2000/svg" viewBox="0 0 487.77 487.77"><defs><style>.cls-1{fill:none;}.cls-2{fill:#383836;}</style></defs><title>scultura</title><g id="Livello_2" data-name="Livello 2"><g id="Livello_2-2" data-name="Livello 2"><circle class="cls-1" cx="243.88" cy="243.88" r="243.88"/><path class="cls-2" d="M289.43,97.66A27.86,27.86,0,0,1,241.87,78a27.86,27.86,0,0,0-47.56-19.7L163.72,89a27.86,27.86,0,0,1,47.56,19.7,27.87,27.87,0,0,0,47.57,19.7Z"/><path class="cls-2" d="M172.69,108.27A27.86,27.86,0,0,1,125.13,128a27.86,27.86,0,0,0-47.56,19.7L77.66,191a27.86,27.86,0,0,1,47.56-19.71,27.86,27.86,0,0,0,47.56-19.7Z"/><path class="cls-2" d="M97.66,198.33A27.87,27.87,0,0,1,78,245.9a27.86,27.86,0,0,0-19.7,47.56L89,324.05a27.87,27.87,0,0,1,19.7-47.57,27.86,27.86,0,0,0,19.7-47.56Z"/><path class="cls-2" d="M108.27,315.07A27.87,27.87,0,0,1,128,362.64a27.86,27.86,0,0,0,19.7,47.56l43.35-.09a27.86,27.86,0,0,1-19.71-47.56A27.87,27.87,0,0,0,151.62,315Z"/><path class="cls-2" d="M198.33,390.11a27.87,27.87,0,0,1,47.57,19.7,27.86,27.86,0,0,0,47.56,19.7l30.59-30.71a27.87,27.87,0,0,1-47.57-19.7,27.86,27.86,0,0,0-47.56-19.71Z"/><path class="cls-2" d="M315.07,379.49a27.87,27.87,0,0,1,47.57-19.7,27.86,27.86,0,0,0,47.56-19.7l-.09-43.35a27.86,27.86,0,0,1-47.56,19.7A27.87,27.87,0,0,0,315,336.14Z"/><path class="cls-2" d="M390.11,289.43a27.86,27.86,0,0,1,19.7-47.56,27.86,27.86,0,0,0,19.7-47.56L398.8,163.72a27.86,27.86,0,0,1-19.7,47.56,27.87,27.87,0,0,0-19.71,47.57Z"/><path class="cls-2" d="M379.49,172.69a27.86,27.86,0,0,1-19.7-47.56,27.86,27.86,0,0,0-19.7-47.56l-43.35.09a27.86,27.86,0,0,1,19.7,47.56,27.86,27.86,0,0,0,19.7,47.56Z"/></g></g></svg>