<svg xmlns="http://www.w3.org/2000/svg" viewBox="0 0 487.77 487.77"><defs><style>.cls-1{fill:none;}.cls-2{fill:#383836;}</style></defs><title>tessuto e cuoio</title><g id="Livello_2" data-name="Livello 2"><g id="Livello_2-2" data-name="Livello 2"><circle class="cls-1" cx="243.88" cy="243.88" r="243.88"/><path class="cls-2" d="M255.06,309.94A6.14,6.14,0,0,1,254,297.76c.73-.14,1.45-.29,2.17-.45a6.14,6.14,0,1,1,2.75,12c-.89.21-1.79.39-2.69.56A6.14,6.14,0,0,1,255.06,309.94Zm-24.67-.47a5.66,5.66,0,0,1-1.35-.16q-1.35-.3-2.67-.66a6.14,6.14,0,1,1,3.21-11.86q1.06.29,2.16.54a6.15,6.15,0,0,1-1.35,12.14Zm49.55-10.31a6.14,6.14,0,0,1-3.65-11.09c.61-.44,1.2-.9,1.79-1.37a6.14,6.14,0,0,1,7.66,9.61q-1.07.84-2.16,1.65A6.08,6.08,0,0,1,279.94,299.16Zm-74-1.44a6.16,6.16,0,0,1-3.82-1.33c-.71-.57-1.42-1.16-2.11-1.76a6.14,6.14,0,1,1,8.05-9.28c.56.48,1.13,1,1.71,1.42a6.14,6.14,0,0,1-3.83,11Zm91.74-19.05a6,6,0,0,1-2.88-.73,6.14,6.14,0,0,1-2.53-8.31c.35-.66.69-1.32,1-2A6.14,6.14,0,1,1,304.35,273c-.4.83-.81,1.64-1.24,2.44A6.13,6.13,0,0,1,297.68,278.67ZM189,276.56a6.13,6.13,0,0,1-5.53-3.46c-.4-.82-.78-1.65-1.15-2.49a6.14,6.14,0,1,1,11.27-4.89q.45,1,.93,2a6.14,6.14,0,0,1-2.85,8.21A6.07,6.07,0,0,1,189,276.56ZM304.79,252.5h-.26a6.15,6.15,0,0,1-5.89-6.38c0-.75.05-1.49.05-2.24v-.26a6.14,6.14,0,0,1,12.28,0v.18c0,1,0,1.91-.06,2.81A6.14,6.14,0,0,1,304.79,252.5Zm-121.86-2.42a6.09,6.09,0,0,1-6.14-6.08v-.13c0-.87,0-1.73.05-2.59a6.14,6.14,0,0,1,12.28.47c0,.71,0,1.41,0,2.12A6.2,6.2,0,0,1,182.93,250.08Zm116.82-24.47a6.14,6.14,0,0,1-5.63-3.69c-.3-.68-.61-1.36-.94-2a6.15,6.15,0,0,1,11.05-5.38c.4.82.78,1.65,1.15,2.48a6.16,6.16,0,0,1-5.63,8.61ZM188.89,223.7a6.16,6.16,0,0,1-5.54-8.8c.4-.83.81-1.65,1.24-2.45a6.14,6.14,0,1,1,10.85,5.76c-.35.66-.69,1.32-1,2A6.13,6.13,0,0,1,188.89,223.7Zm94.74-19.89a6.08,6.08,0,0,1-4-1.49c-.57-.48-1.15-1-1.73-1.42a6.14,6.14,0,1,1,7.63-9.63c.72.57,1.42,1.15,2.11,1.74a6.14,6.14,0,0,1-4,10.8Zm-77.87-1.35a6.14,6.14,0,0,1-3.85-10.93c.71-.58,1.43-1.13,2.16-1.67a6.14,6.14,0,0,1,7.3,9.88c-.6.44-1.19.9-1.77,1.36A6.06,6.06,0,0,1,205.76,202.46Zm53.91-11.33a6.2,6.2,0,0,1-1.59-.21c-.72-.19-1.45-.37-2.17-.53a6.14,6.14,0,1,1,2.69-12c.89.2,1.78.41,2.66.65a6.15,6.15,0,0,1-1.59,12.08Zm-29.53-.51a6.14,6.14,0,0,1-1.37-12.13c.88-.21,1.77-.39,2.67-.56A6.14,6.14,0,0,1,233.71,190c-.74.14-1.47.3-2.19.46A6,6,0,0,1,230.14,190.62Z"/></g></g></svg>